<?xml version="1.0" encoding="UTF-8"?>
<svg id="Calque_1" xmlns="http://www.w3.org/2000/svg" version="1.1" viewBox="0 0 149.3 149.3">
  <!-- Generator: Adobe Illustrator 29.6.1, SVG Export Plug-In . SVG Version: 2.1.1 Build 9)  -->
  <defs>
    <style>
      .st0 {
        fill: #fff;
      }
    </style>
  </defs>
  <path class="st0" d="M3032.1,511.9h-129.9c-3.1,0-5.6,2.5-5.6,5.6v129.9c0,3.1,2.5,5.6,5.6,5.6h129.9c3.1,0,5.6-2.5,5.6-5.6v-129.9c0-3.1-2.5-5.6-5.6-5.6ZM2982.4,554.1h24.4v5.9h-24.4v-5.9ZM2967.1,603.1c-1.1,2.2-2.8,4-4.8,5.5-2.1,1.4-4.4,2.5-6.8,3.1-2.6.7-5.2,1-7.9,1h-29.2v-60.2h28.4c2.9,0,5.5.3,7.9.8,2.4.5,4.4,1.3,6.1,2.5,1.7,1.1,3,2.7,3.9,4.6.9,1.9,1.4,4.3,1.4,7.1s-.7,5.5-2.1,7.6c-1.4,2-3.4,3.7-6.1,5,3.7,1.1,6.5,2.9,8.3,5.6,1.8,2.7,2.7,5.9,2.7,9.7s-.6,5.7-1.8,7.9ZM3016.3,593.8h-31.5c0,3.4,1.2,6.7,3,8.5,1.8,1.7,4.4,2.6,7.7,2.6s4.5-.6,6.3-1.8c1.7-1.2,2.8-2.5,3.2-3.8h10.6c-1.7,5.2-4.3,9-7.8,11.2-3.5,2.3-7.7,3.4-12.6,3.4s-6.5-.6-9.3-1.6c-2.7-1-5.1-2.6-7-4.7-1.9-2.1-3.5-4.6-4.4-7.3-1.1-3-1.6-6.1-1.6-9.3,0-3.3.5-6.3,1.6-9.1,2-5.5,6.2-9.9,11.6-12.2,2.9-1.2,6-1.8,9.1-1.8,3.7,0,6.9.7,9.7,2.2,2.7,1.4,5,3.4,6.8,5.8,1.8,2.4,3,5.2,3.8,8.3.8,3.1,1,6.3.8,9.7h0ZM2994.8,577c-1.9,0-3.5.3-4.7,1s-2.3,1.5-3,2.4c-.7.9-1.3,1.9-1.6,3.1-.3.9-.5,1.9-.5,2.9h19.5c-.3-3.1-1.3-5.3-2.8-6.9-1.5-1.6-3.9-2.4-6.8-2.4h0ZM2950.9,575.2c1.5-1.1,2.3-2.9,2.3-5.5,0-1.2-.2-2.4-.7-3.5-.5-.9-1.2-1.6-2-2.1-.9-.5-1.9-.9-2.9-1.1-1.1-.2-2.3-.3-3.4-.3h-12.4v14.1h13.4c2.3,0,4.3-.5,5.8-1.7ZM2953,587.9c-1.7-1.3-4-2-6.9-2h-14.4v16.6h14.2c1.3,0,2.5-.1,3.7-.4s2.2-.7,3.1-1.3c.9-.6,1.6-1.4,2.2-2.4.5-1,.8-2.3.8-3.9,0-3.1-.9-5.3-2.6-6.7h0Z"/>
  <path class="st0" d="M3032.1,511.9h-129.9c-3.1,0-5.6,2.5-5.6,5.6v129.9c0,3.1,2.5,5.6,5.6,5.6h129.9c3.1,0,5.6-2.5,5.6-5.6v-129.9c0-3.1-2.5-5.6-5.6-5.6ZM2982.4,554.1h24.4v5.9h-24.4v-5.9ZM2967.1,603.1c-1.1,2.2-2.8,4-4.8,5.5-2.1,1.4-4.4,2.5-6.8,3.1-2.6.7-5.2,1-7.9,1h-29.2v-60.2h28.4c2.9,0,5.5.3,7.9.8,2.4.5,4.4,1.3,6.1,2.5,1.7,1.1,3,2.7,3.9,4.6.9,1.9,1.4,4.3,1.4,7.1s-.7,5.5-2.1,7.6c-1.4,2-3.4,3.7-6.1,5,3.7,1.1,6.5,2.9,8.3,5.6,1.8,2.7,2.7,5.9,2.7,9.7s-.6,5.7-1.8,7.9ZM3016.3,593.8h-31.5c0,3.4,1.2,6.7,3,8.5,1.8,1.7,4.4,2.6,7.7,2.6s4.5-.6,6.3-1.8c1.7-1.2,2.8-2.5,3.2-3.8h10.6c-1.7,5.2-4.3,9-7.8,11.2-3.5,2.3-7.7,3.4-12.6,3.4s-6.5-.6-9.3-1.6c-2.7-1-5.1-2.6-7-4.7-1.9-2.1-3.5-4.6-4.4-7.3-1.1-3-1.6-6.1-1.6-9.3,0-3.3.5-6.3,1.6-9.1,2-5.5,6.2-9.9,11.6-12.2,2.9-1.2,6-1.8,9.1-1.8,3.7,0,6.9.7,9.7,2.2,2.7,1.4,5,3.4,6.8,5.8,1.8,2.4,3,5.2,3.8,8.3.8,3.1,1,6.3.8,9.7h0ZM2994.8,577c-1.9,0-3.5.3-4.7,1s-2.3,1.5-3,2.4c-.7.9-1.3,1.9-1.6,3.1-.3.9-.5,1.9-.5,2.9h19.5c-.3-3.1-1.3-5.3-2.8-6.9-1.5-1.6-3.9-2.4-6.8-2.4h0ZM2950.9,575.2c1.5-1.1,2.3-2.9,2.3-5.5,0-1.2-.2-2.4-.7-3.5-.5-.9-1.2-1.6-2-2.1-.9-.5-1.9-.9-2.9-1.1-1.1-.2-2.3-.3-3.4-.3h-12.4v14.1h13.4c2.3,0,4.3-.5,5.8-1.7ZM2953,587.9c-1.7-1.3-4-2-6.9-2h-14.4v16.6h14.2c1.3,0,2.5-.1,3.7-.4s2.2-.7,3.1-1.3c.9-.6,1.6-1.4,2.2-2.4.5-1,.8-2.3.8-3.9,0-3.1-.9-5.3-2.6-6.7h0Z"/>
  <path class="st0" d="M139.9,3.8H9.9c-3.1,0-5.6,2.5-5.6,5.6v129.9c0,3.1,2.5,5.6,5.6,5.6h129.9c3.1,0,5.6-2.5,5.6-5.6V9.5c0-3.1-2.5-5.6-5.6-5.6ZM90.2,46h24.4v5.9h-24.4v-5.9ZM74.9,95c-1.1,2.2-2.8,4-4.8,5.5-2.1,1.4-4.4,2.5-6.8,3.1-2.6.7-5.2,1-7.9,1h-29.2v-60.2h28.4c2.9,0,5.5.3,7.9.8,2.4.5,4.4,1.3,6.1,2.5,1.7,1.1,3,2.7,3.9,4.6.9,1.9,1.4,4.3,1.4,7.1s-.7,5.5-2.1,7.6c-1.4,2-3.4,3.7-6.1,5,3.7,1.1,6.5,2.9,8.3,5.6,1.8,2.7,2.7,5.9,2.7,9.7s-.6,5.7-1.8,7.9ZM124.1,85.7h-31.5c0,3.4,1.2,6.7,3,8.5,1.8,1.7,4.4,2.6,7.7,2.6s4.5-.6,6.3-1.8c1.7-1.2,2.8-2.5,3.2-3.8h10.6c-1.7,5.2-4.3,9-7.8,11.2-3.5,2.3-7.7,3.4-12.6,3.4s-6.5-.6-9.3-1.6c-2.7-1-5.1-2.6-7-4.7-1.9-2.1-3.5-4.6-4.4-7.3-1.1-3-1.6-6.1-1.6-9.3,0-3.3.5-6.3,1.6-9.1,2-5.5,6.2-9.9,11.6-12.2,2.9-1.2,6-1.8,9.1-1.8,3.7,0,6.9.7,9.7,2.2,2.7,1.4,5,3.4,6.8,5.8,1.8,2.4,3,5.2,3.8,8.3.8,3.1,1,6.3.8,9.7h0ZM102.6,68.8c-1.9,0-3.5.3-4.7,1s-2.3,1.5-3,2.4c-.7.9-1.3,1.9-1.6,3.1-.3.9-.5,1.9-.5,2.9h19.5c-.3-3.1-1.3-5.3-2.8-6.9-1.5-1.6-3.9-2.4-6.8-2.4h0ZM58.7,67.1c1.5-1.1,2.3-2.9,2.3-5.5,0-1.2-.2-2.4-.7-3.5-.5-.9-1.2-1.6-2-2.1-.9-.5-1.9-.9-2.9-1.1-1.1-.2-2.3-.3-3.4-.3h-12.4v14.1h13.4c2.3,0,4.3-.5,5.8-1.7ZM60.8,79.8c-1.7-1.3-4-2-6.9-2h-14.4v16.6h14.2c1.3,0,2.5-.1,3.7-.4s2.2-.7,3.1-1.3c.9-.6,1.6-1.4,2.2-2.4.5-1,.8-2.3.8-3.9,0-3.1-.9-5.3-2.6-6.7h0Z"/>
</svg>