<?xml version="1.0" encoding="UTF-8"?>
<svg id="Calque_1" xmlns="http://www.w3.org/2000/svg" version="1.1" viewBox="0 0 148.7 148.7">
  <!-- Generator: Adobe Illustrator 29.6.1, SVG Export Plug-In . SVG Version: 2.1.1 Build 9)  -->
  <defs>
    <style>
      .st0 {
        fill: #fff;
      }
    </style>
  </defs>
  <path class="st0" d="M74.6,37.8c-20,0-36.3,16.2-36.3,36.3s16.2,36.3,36.3,36.3c20,0,36.3-16.2,36.3-36.3s-16.2-36.3-36.3-36.3ZM74.6,97.6c-13,0-23.5-10.5-23.5-23.5s10.5-23.5,23.5-23.5,23.5,10.5,23.5,23.5-10.5,23.5-23.5,23.5ZM112.3,27.9c-4.7,0-8.5,3.8-8.5,8.5s3.8,8.5,8.5,8.5,8.5-3.8,8.5-8.5-3.8-8.5-8.5-8.5ZM112.3,27.9c-4.7,0-8.5,3.8-8.5,8.5s3.8,8.5,8.5,8.5,8.5-3.8,8.5-8.5-3.8-8.5-8.5-8.5ZM74.6,37.8c-20,0-36.3,16.2-36.3,36.3s16.2,36.3,36.3,36.3c20,0,36.3-16.2,36.3-36.3s-16.2-36.3-36.3-36.3ZM74.6,97.6c-13,0-23.5-10.5-23.5-23.5s10.5-23.5,23.5-23.5,23.5,10.5,23.5,23.5-10.5,23.5-23.5,23.5ZM74.6,37.8c-20,0-36.3,16.2-36.3,36.3s16.2,36.3,36.3,36.3c20,0,36.3-16.2,36.3-36.3s-16.2-36.3-36.3-36.3ZM74.6,97.6c-13,0-23.5-10.5-23.5-23.5s10.5-23.5,23.5-23.5,23.5,10.5,23.5,23.5-10.5,23.5-23.5,23.5ZM112.3,27.9c-4.7,0-8.5,3.8-8.5,8.5s3.8,8.5,8.5,8.5,8.5-3.8,8.5-8.5-3.8-8.5-8.5-8.5ZM112.3,27.9c-4.7,0-8.5,3.8-8.5,8.5s3.8,8.5,8.5,8.5,8.5-3.8,8.5-8.5-3.8-8.5-8.5-8.5ZM74.6,37.8c-20,0-36.3,16.2-36.3,36.3s16.2,36.3,36.3,36.3c20,0,36.3-16.2,36.3-36.3s-16.2-36.3-36.3-36.3ZM74.6,97.6c-13,0-23.5-10.5-23.5-23.5s10.5-23.5,23.5-23.5,23.5,10.5,23.5,23.5-10.5,23.5-23.5,23.5ZM144.8,45c-.4-7.5-1.5-12.6-3.3-17.1-1.8-4.6-4.2-8.6-8.1-12.5s-7.9-6.3-12.5-8.1c-4.5-1.8-9.6-2.9-17.1-3.3-7.5-.3-9.9-.4-29.1-.4s-21.6,0-29.1.4c-7.5.3-12.6,1.5-17.1,3.3-4.6,1.8-8.6,4.2-12.5,8.1-3.9,3.9-6.3,7.9-8.1,12.5-1.8,4.5-2.9,9.6-3.3,17.1-.3,7.5-.4,9.9-.4,29.1s0,21.6.4,29.1c.4,7.5,1.5,12.6,3.3,17.1,1.8,4.6,4.2,8.6,8.1,12.5,3.9,3.9,7.9,6.3,12.5,8.1,4.5,1.8,9.6,2.9,17.1,3.3,7.5.3,9.9.4,29.1.4s21.6,0,29.1-.4c7.5-.3,12.6-1.5,17.1-3.3,4.6-1.8,8.6-4.2,12.5-8.1s6.3-7.9,8.1-12.5c1.7-4.5,2.9-9.6,3.3-17.1.3-7.5.4-9.9.4-29.1s0-21.6-.4-29.1ZM132.1,102.6c-.3,6.9-1.5,10.6-2.4,13.1-1.3,3.3-2.8,5.6-5.3,8.1-2.5,2.5-4.8,4-8.1,5.3-2.5,1-6.2,2.1-13.1,2.4-7.4.3-9.7.4-28.5.4s-21.1,0-28.5-.4c-6.9-.3-10.6-1.5-13.1-2.4-3.3-1.3-5.6-2.8-8.1-5.3s-4-4.8-5.3-8.1c-1-2.5-2.1-6.2-2.4-13.1-.3-7.4-.4-9.7-.4-28.5s0-21.1.4-28.5c.3-6.9,1.5-10.6,2.4-13.1,1.3-3.3,2.8-5.6,5.3-8.1,2.5-2.5,4.8-4,8.1-5.3,2.5-1,6.2-2.1,13.1-2.4,6.5-.3,9-.4,22.2-.4h0s6.3,0,6.3,0c18.9,0,21.1,0,28.5.4,6.9.3,10.6,1.5,13.1,2.4,3.3,1.3,5.6,2.8,8.1,5.3s4,4.8,5.3,8.1c1,2.5,2.1,6.2,2.4,13.1.3,7.4.4,9.7.4,28.5s0,21.1-.4,28.5ZM112.3,27.9c-4.7,0-8.5,3.8-8.5,8.5s3.8,8.5,8.5,8.5,8.5-3.8,8.5-8.5-3.8-8.5-8.5-8.5ZM74.6,37.8c-20,0-36.3,16.2-36.3,36.3s16.2,36.3,36.3,36.3c20,0,36.3-16.2,36.3-36.3s-16.2-36.3-36.3-36.3ZM74.6,97.6c-13,0-23.5-10.5-23.5-23.5s10.5-23.5,23.5-23.5,23.5,10.5,23.5,23.5-10.5,23.5-23.5,23.5ZM74.6,37.8c-20,0-36.3,16.2-36.3,36.3s16.2,36.3,36.3,36.3c20,0,36.3-16.2,36.3-36.3s-16.2-36.3-36.3-36.3ZM74.6,97.6c-13,0-23.5-10.5-23.5-23.5s10.5-23.5,23.5-23.5,23.5,10.5,23.5,23.5-10.5,23.5-23.5,23.5ZM112.3,27.9c-4.7,0-8.5,3.8-8.5,8.5s3.8,8.5,8.5,8.5,8.5-3.8,8.5-8.5-3.8-8.5-8.5-8.5ZM112.3,27.9c-4.7,0-8.5,3.8-8.5,8.5s3.8,8.5,8.5,8.5,8.5-3.8,8.5-8.5-3.8-8.5-8.5-8.5ZM74.6,37.8c-20,0-36.3,16.2-36.3,36.3s16.2,36.3,36.3,36.3c20,0,36.3-16.2,36.3-36.3s-16.2-36.3-36.3-36.3ZM74.6,97.6c-13,0-23.5-10.5-23.5-23.5s10.5-23.5,23.5-23.5,23.5,10.5,23.5,23.5-10.5,23.5-23.5,23.5Z"/>
</svg>