<?xml version="1.0" encoding="UTF-8"?>
<svg id="Calque_1" xmlns="http://www.w3.org/2000/svg" version="1.1" viewBox="0 0 150.6 150.6">
  <!-- Generator: Adobe Illustrator 29.6.1, SVG Export Plug-In . SVG Version: 2.1.1 Build 9)  -->
  <defs>
    <style>
      .st0 {
        fill: #fff;
        fill-rule: evenodd;
      }
    </style>
  </defs>
  <path class="st0" d="M130.4,4.5H20.7c-8.7,0-15.7,7-15.7,15.7v109.7c0,8.7,7,15.7,15.7,15.7h109.7c8.7,0,15.7-7,15.7-15.7V20.2c0-8.7-7-15.7-15.7-15.7ZM47.7,126h-21V58.1h21v67.9ZM37,49.2c-6.9,0-12.4-5.6-12.4-12.5s5.6-12.5,12.4-12.5,12.4,5.6,12.4,12.5-5.6,12.5-12.4,12.5ZM126.5,126h-20.9v-35.7c0-9.8-3.7-15.2-11.4-15.2s-12.8,5.7-12.8,15.2v35.7h-20.2V58.1h20.2v9.1s6.1-11.2,20.5-11.2,24.7,8.8,24.7,27v43Z"/>
</svg>