<?xml version="1.0" encoding="UTF-8"?>
<svg id="LJ_STUDIO" data-name="LJ STUDIO" xmlns="http://www.w3.org/2000/svg" viewBox="0 0 1299.03 937.15">
  <g id="ICONE">
    <path d="M888.56,781.39c123.49-50.18,210.73-171.43,210.73-312.7,0-32.96-4.73-65.23-13.87-96.01l-54.66.75c8.02,22.32,13.12,45.64,15.3,69.27h-65.23l-13.49,52.05h78.72c-3.92,42.9-17.72,84.75-40.11,121.62h-70.08l-13.49,52.04h43.09c-16.29,16.54-34.57,31.15-54.35,43.28-6.03,22.2-13.43,45.89-22.57,69.7Z"/>
    <path d="M584.25,488.52h24.5c17.72,0,42.72-14.36,75.36-45.83h-85.37c-6.9,21.89-12.06,38.24-14.49,45.83Z"/>
    <path d="M580.95,488.52c-.12-.5-.31-.62-.43,0h.43Z"/>
    <path d="M761.96.22c-1.43,0-2.86,0-4.23.06l.06-.06c-29.66,0-71.45.06-114.72.06.31,0,.68-.06,1-.06-4.3-.08-8.43-.03-12.48.08-24.25.04-48.62.05-71.26.08l.09-.16h-73.04c-9.76-.18-26.86-.38-43.84,0h-183.85l8.36.18c-.5,0-.97,0-1.48,0,.79,0,1.54.01,2.33.01l65.22,1.42c35.17,1.37,63.49,3.38,86.4,4.41,44.46,1.99,68.77,19.4,83.88,28.35,0,0,.12.06.31.19.25.19.62.44,1.12.81.04.03.08.06.12.09.52.39,1.16.9,1.89,1.52.02.02.04.03.06.05.34.29.76.7,1.13,1.04.43.41.86.8,1.33,1.29.43.37.93.81,1.43,1.43.77.79,1.58,1.71,2.4,2.67.33.38.66.8.99,1.21.62.76,1.24,1.55,1.87,2.4.72.98,1.44,2.04,2.16,3.15.36.54.72,1.1,1.07,1.68.86,1.4,1.7,2.88,2.53,4.47.23.44.46.91.69,1.37.93,1.88,1.85,3.84,2.71,5.99,6.34,15.79,9.95,38.99,3.36,71.57-.75,3.73-1.62,7.59-2.67,11.63-.19.56-.31,1.18-.5,1.8-.37,1.43-.75,2.8-1.06,4.1-.31,1.18-.68,2.43-.99,3.67l-27.86,104.03-40.23,149.92v.06c-8.39,24.56-12.93,46.51-17.66,65.85-.06.06-.06.12-.06.19-2.74,9.95-5.29,18.84-7.52,26.74-.12.37-.25.75-.37,1.12-.99,2.86-2.05,5.6-3.17,8.27-9.14,21.83-23.44,39.24-52.73,52.67-2.24,1-4.6,2.05-7.09,3.05-8.08-31.9-12.37-65.29-12.37-99.61,0-86,26.8-165.9,72.56-231.62l.06-.06,30.34-98.24c2.61-9.89,5.97-22.2,9.08-34.39-106.2,85.93-174.23,217.32-174.23,364.31,0,39.98,5.04,78.78,14.49,115.9-1.12.19-2.3.43-3.48.62-1.62.25-3.23.56-4.91.81-.31.06-.62.12-.93.12-49.06,7.27-112.05,12.06-192.7,14.55-.19.06-.25.06-.37,0,0,0,0,.06-.06,0q-.06.06-.12,0t-.12,0-.12,0s0,.06-.06,0c-5.41.12-10.88.31-16.42.44-13.49.31-27.55.56-42.16.75-2.98.06-5.97.12-9.02.12-2.98.06-6.03.06-9.08.12-3.05,0-6.09.06-9.2.06-6.16.06-12.44.12-18.84.12l33.14.12,10.7.06,81.52.31c74.43.44,136.3.81,187.72,1.12,7.09.06,13.99.12,20.7.19h2.3c6.03.06,11.88.06,17.6.12h380.11s.37-.5.99-1.43c.31-.44.68-.93,1.12-1.55,6.84-9.7,29.54-42.28,52.04-78.84,2.55-4.17,5.16-8.39,7.71-12.69l-7.71,34.82-13.18,59.38-22.14,100.11c-2.92,10.88-5.78,21.02-8.64,30.34-1.12,3.73-2.24,7.4-3.36,10.88-.12.44-.25.87-.43,1.24-26.92-11.38-58.08-36.5-79.53-73.93h-58.51c4.41,10.07,9.2,19.59,14.24,28.66,3.67,6.53,7.46,12.87,11.44,18.9-23.57-12.69-45.52-28.73-64.79-47.51h-69.39c2.36,3.17,4.85,6.34,7.46,9.45,53.1,64.79,129.89,109.5,217.01,120.82-17.54,35.07-34.32,46.08-52.29,50.61-19.77,4.97-45.08-3.98-55.9-7.71-.12-.06-.19-.06-.31-.12l-.93-.44-21.51-9.51-1.37-.62c-67.09-32.33-123.99-82.64-164.47-144.57-1.55-1.62-3.05-3.3-4.54-5.1-19.71-23.69-55.09-40.54-93.95-52.48,51.92,138.29,167.39,245.74,310.59,286.65l1.43.31c7.15,1.62,14.3,1.87,21.58.62,6.28-1.06,12.31-2.3,18.16-3.79,13.74-3.36,26.18-7.71,37.43-13.24,15.3-7.4,28.6-16.79,40.23-28.35,18.47-18.22,32.96-41.79,45.58-71.32,9.7-22.57,18.28-48.62,26.68-78.41,1.74-6.09,3.42-12.31,5.16-18.72l10.32-38.61,13.99-52.04,32.58-121.62,13.93-52.05,6.59-24.5,8.52-31.77c5.91-21.58,13.8-36.06,21.76-45.83,2.55-3.17,5.16-5.84,7.71-8.08,8.89-7.9,17.1-10.57,21.64-11.5,2.3-.44,3.67-.44,3.79-.44l13.99-.62,3.73-.19,75.43-2.05,7.59-.19-15.55-25.93-13.55-22.7h-234.05v.06h-20.15v-81.7c29.47,5.72,60.31,13.8,88.48,24h103.22c-60.87-51.73-137.11-79.9-217.69-79.9-26.43,0-52.17,3.05-76.86,8.83-6.22,29.85-18.16,74.31-31.77,121.69,20.95-35.44,51.61-62.99,82.58-73.81v80.9h-84.57c-5.04,17.22-10.2,34.76-15.36,52.04h99.92v64.92c.31-.37.68-.81.99-1.18l51.11-63.73,29.22-.25c11.25,0,19.34,1.12,24.87,3.3,23.01,8.64,1.55,33.89-19.15,62.68l-33.02,41.16c-.37.43-.68.87-1,1.24-2.3,2.74-4.48,5.35-6.65,7.96-19.53,23.19-36.81,42.22-52.73,57.64-42.1,41.04-73.93,57.21-108.01,60.25-4.23.37-8.46.56-12.81.56h-30.9c-3.11,0-6.16,0-9.08-.06-.87.06-1.8.06-2.67,0-39.98-.19-57.89-2.61-58.45-28.79,0-1.12.06-2.24.06-3.42.37-8.08,1.86-17.53,4.29-28.54.31-1.43.62-2.92.93-4.41.5-2.11,1.06-4.35,1.62-6.65.68-2.61,1.37-5.29,2.11-8.08l8.83-32.89,32.58-121.69,13.93-52.04,4.48-16.73,20.83-77.85,4.73-17.66c2.74-10.2,5.28-19.52,7.65-28.04q.06-.06.06-.12v-.12c3.79-13.99,7.21-25.87,10.38-36,.56-1.8,1.12-3.48,1.68-5.16,43.71-16.1,90.91-24.87,140.15-24.87,224.22,0,406.6,182.37,406.6,406.6,0,195.31-138.35,358.9-322.28,397.77-8.02,12.56-16.73,24.62-26.37,36.06-10.32,12.37-21.7,23.88-34.14,34.32,247.48-12.44,444.96-217.69,444.96-468.15S1020.44.22,761.96.22Z"/>
  </g>
</svg>