<?xml version="1.0" encoding="UTF-8"?>
<svg id="Calque_1" xmlns="http://www.w3.org/2000/svg" version="1.1" viewBox="0 0 500 500">
  <!-- Generator: Adobe Illustrator 29.5.1, SVG Export Plug-In . SVG Version: 2.1.0 Build 141)  -->
  <path d="M163.35,200.38s14.96-29.21,34.2-27.55c3.8.36,11.64.12,25.41,15.56-5.34-2.26-30.22-18.85-59.62,11.99Z"/>
  <path d="M183.61,305.08s-.02-.04-.02-.06c.01.1.02.2.02.3,0,.07,0,.13,0,.2,0-.14,0-.29,0-.45h0ZM202.27,267.77c-11.71,0-21.2,11.33-21.2,25.3,0,2.52.31,4.96.89,7.26.04.14.07.27.1.41,0,0,0,0,0,0,.24.92.54,1.83.86,2.7l.29-.16.99-.54,38.54-8.73.69.14h0c0-.06,0-.12,0-.18.01-.3.02-.6.02-.9,0-13.97-9.49-25.3-21.2-25.3h0ZM197.77,287.64c-4.97,0-8.99-3.67-8.99-8.19s4.03-8.19,8.99-8.19,8.99,3.67,8.99,8.19-4.02,8.19-8.99,8.19ZM183.61,305.08s-.02-.04-.02-.06c.01.1.02.2.02.3,0,.07,0,.13,0,.2,0-.14,0-.29,0-.45h0ZM202.27,267.77c-11.71,0-21.2,11.33-21.2,25.3,0,2.52.31,4.96.89,7.26.04.14.07.27.1.41,0,0,0,0,0,0,.24.92.54,1.83.86,2.7l.29-.16.99-.54,38.54-8.73.69.14h0c0-.06,0-.12,0-.18.01-.3.02-.6.02-.9,0-13.97-9.49-25.3-21.2-25.3h0ZM197.77,287.64c-4.97,0-8.99-3.67-8.99-8.19s4.03-8.19,8.99-8.19,8.99,3.67,8.99,8.19-4.02,8.19-8.99,8.19ZM183.61,305.08s-.02-.04-.02-.06c.01.1.02.2.02.3,0,.07,0,.13,0,.2,0-.14,0-.29,0-.45h0ZM202.27,267.77c-11.71,0-21.2,11.33-21.2,25.3,0,2.52.31,4.96.89,7.26.04.14.07.27.1.41,0,0,0,0,0,0,.24.92.54,1.83.86,2.7l.29-.16.99-.54,38.54-8.73.69.14h0c0-.06,0-.12,0-.18.01-.3.02-.6.02-.9,0-13.97-9.49-25.3-21.2-25.3h0ZM197.77,287.64c-4.97,0-8.99-3.67-8.99-8.19s4.03-8.19,8.99-8.19,8.99,3.67,8.99,8.19-4.02,8.19-8.99,8.19ZM183.59,305.02c.01.1.02.2.02.3,0,.07,0,.13,0,.2,0-.14,0-.29,0-.45,0-.02-.02-.04-.02-.06h0ZM242.17,266.74c-.65-34.51-20.01-62.13-43.23-61.69-23.22.44-41.52,28.77-40.87,63.28.65,34.51,20.01,62.13,43.23,61.69,23.22-.44,41.52-28.77,40.87-63.28ZM188.78,279.44c0-4.53,4.03-8.19,8.99-8.19s8.99,3.67,8.99,8.19-4.02,8.19-8.99,8.19-8.99-3.67-8.99-8.19ZM227.9,294.09s0,0,0,.02c-.12.3-.23.6-.35.9-.06.14-.11.29-.17.43h0c-2.76,6.73-6.46,12.34-10.82,16.35,3.93-4.27,6.51-10.29,6.88-17.02h0c.01-.2.02-.4.03-.6,0-.06,0-.12,0-.19.01-.3.02-.6.02-.9,0-13.97-9.49-25.3-21.2-25.3s-21.2,11.33-21.2,25.3c0,2.52.31,4.96.89,7.26.04.14.07.27.1.41,0,0,0,0,0,0,.24.92.54,1.83.86,2.7.21.54.42,1.07.65,1.58.01.1.02.2.02.3,0,.07,0,.13,0,.2,0-.14,0-.29,0-.45,3.58,7.91,10.6,13.28,18.66,13.28.41,0,.82-.02,1.23-.04-.71.11-1.43.17-2.16.2-8.28.32-16.04-4.3-22.2-12.21-.14-.18-.28-.37-.42-.55-.05-.07-.11-.14-.16-.21-.02-.02-.03-.04-.04-.06-7.29-9.79-12.19-24.27-12.81-40.58-1.17-30.32,12.91-55.49,31.43-56.2,18.52-.71,34.48,23.29,35.64,53.62.45,11.74-1.38,22.7-4.87,31.77h0ZM183.61,305.08s-.02-.04-.02-.06c.01.1.02.2.02.3,0,.07,0,.13,0,.2,0-.14,0-.29,0-.45h0ZM202.27,267.77c-11.71,0-21.2,11.33-21.2,25.3,0,2.52.31,4.96.89,7.26.04.14.07.27.1.41,0,0,0,0,0,0,.24.92.54,1.83.86,2.7l.29-.16.99-.54,38.54-8.73.69.14h0c0-.06,0-.12,0-.18.01-.3.02-.6.02-.9,0-13.97-9.49-25.3-21.2-25.3h0ZM197.77,287.64c-4.97,0-8.99-3.67-8.99-8.19s4.03-8.19,8.99-8.19,8.99,3.67,8.99,8.19-4.02,8.19-8.99,8.19ZM183.61,305.08s-.02-.04-.02-.06c.01.1.02.2.02.3,0,.07,0,.13,0,.2,0-.14,0-.29,0-.45h0ZM202.27,267.77c-11.71,0-21.2,11.33-21.2,25.3,0,2.52.31,4.96.89,7.26.04.14.07.27.1.41,0,0,0,0,0,0,.24.92.54,1.83.86,2.7l.29-.16.99-.54,38.54-8.73.69.14h0c0-.06,0-.12,0-.18.01-.3.02-.6.02-.9,0-13.97-9.49-25.3-21.2-25.3h0ZM197.77,287.64c-4.97,0-8.99-3.67-8.99-8.19s4.03-8.19,8.99-8.19,8.99,3.67,8.99,8.19-4.02,8.19-8.99,8.19ZM183.61,305.08s-.02-.04-.02-.06c.01.1.02.2.02.3,0,.07,0,.13,0,.2,0-.14,0-.29,0-.45h0ZM202.27,267.77c-11.71,0-21.2,11.33-21.2,25.3,0,2.52.31,4.96.89,7.26.04.14.07.27.1.41,0,0,0,0,0,0,.24.92.54,1.83.86,2.7l.29-.16.99-.54,38.54-8.73.69.14h0c0-.06,0-.12,0-.18.01-.3.02-.6.02-.9,0-13.97-9.49-25.3-21.2-25.3h0ZM197.77,287.64c-4.97,0-8.99-3.67-8.99-8.19s4.03-8.19,8.99-8.19,8.99,3.67,8.99,8.19-4.02,8.19-8.99,8.19Z"/>
  <path d="M202.27,267.77c-11.71,0-21.2,11.33-21.2,25.3,0,2.52.31,4.96.89,7.26.04.14.07.27.1.41,0,0,0,0,0,0,.24.92.54,1.83.86,2.7.21.54.42,1.07.65,1.58.01.1.02.2.02.3,0,.07,0,.13,0,.2,0-.14,0-.29,0-.45,3.58,7.91,10.6,13.28,18.66,13.28.41,0,.82-.02,1.23-.04,4.74-.68,9.14-2.97,13.02-6.53,0,0,0-.01.02-.02,3.93-4.27,6.51-10.29,6.88-17.02h0c.01-.2.02-.4.03-.6,0-.06,0-.12,0-.19.01-.3.02-.6.02-.9,0-13.97-9.49-25.3-21.2-25.3h0ZM197.77,271.25c4.97,0,8.99,3.67,8.99,8.19s-4.02,8.19-8.99,8.19-8.99-3.67-8.99-8.19,4.03-8.19,8.99-8.19Z"/>
  <path d="M202.27,267.77c-11.71,0-21.2,11.33-21.2,25.3,0,2.52.31,4.96.89,7.26.04.14.07.27.1.41,0,0,0,0,0,0,.24.92.54,1.83.86,2.7.21.54.42,1.07.65,1.58,0,.02.02.04.02.06,3.58,7.91,10.6,13.28,18.66,13.28.41,0,.82-.02,1.23-.04,5.01-.34,9.54-2.75,13.02-6.53,0,0,0-.01.02-.02,3.93-4.27,6.51-10.29,6.88-17.02h0c.01-.2.02-.4.03-.6,0-.06,0-.12,0-.19.01-.3.02-.6.02-.9,0-13.97-9.49-25.3-21.2-25.3h0ZM197.77,271.25c4.97,0,8.99,3.67,8.99,8.19s-4.02,8.19-8.99,8.19-8.99-3.67-8.99-8.19,4.03-8.19,8.99-8.19Z"/>
  <path d="M179.14,306.3c-.15-.17-.29-.35-.43-.55-.05-.07-.1-.14-.15-.22.05.07.11.14.16.21.14.18.28.37.42.55Z"/>
  <path d="M183.59,305.02c-.23-.52-.45-1.04-.65-1.58-.33-.87-.62-1.78-.86-2.7.2.33.39.68.57,1.05.24.5.44,1.01.59,1.49.19.61.31,1.2.36,1.74h0Z"/>
  <path d="M227.9,294.1c-.1.31-.22.61-.34.9-.06.14-.12.29-.19.42h0c-.78,1.63-1.81,2.63-2.67,2.42-.82-.2-1.27-1.43-1.27-3.09h0c0-.2,0-.39.02-.6,0-.06,0-.12.01-.18,0,.06,0,.12,0,.19h.01c-.11,1.93.35,3.42,1.24,3.64.92.23,2.04-.95,2.83-2.8h.01c.12-.29.24-.59.35-.89h0Z"/>
  <path d="M228.52,295.2l-1.08,4.81-8.79,14.55-15.08,6.3-16.8-3.56-9.38-10.81,1.33-.73h0c.14.18.28.37.42.55,1.17,1.38,2.5,2.07,3.43,1.64.72-.33,1.07-1.23,1.04-2.42,0-.07,0-.13,0-.2,0-.1-.01-.2-.02-.3-.23-.52-.45-1.04-.65-1.58l.29-.16.99-.54,38.54-8.73.69.14h0s.01,0,.01,0c-.11,1.93.35,3.42,1.24,3.64.92.23,2.04-.95,2.83-2.8h.01s.02,0,.02,0l.96.2h0Z"/>
  <path d="M316.39,305.53c0-.07,0-.13,0-.2,0-.1.01-.2.02-.3,0,.02-.02.04-.02.06,0,.15,0,.31,0,.45h0ZM276.53,293.07c0,.3,0,.6.02.9,0,.06,0,.12,0,.19h0s.69-.14.69-.14l38.54,8.73.99.54.29.16c.33-.87.61-1.78.86-2.7,0,0,0,0,0,0,.04-.14.07-.27.11-.41.58-2.3.89-4.73.89-7.26,0-13.97-9.49-25.3-21.2-25.3s-21.2,11.33-21.2,25.3h0ZM293.24,279.44c0-4.53,4.02-8.19,8.99-8.19s8.99,3.67,8.99,8.19-4.03,8.19-8.99,8.19-8.99-3.67-8.99-8.19ZM316.39,305.53c0-.07,0-.13,0-.2,0-.1.01-.2.02-.3,0,.02-.02.04-.02.06,0,.15,0,.31,0,.45h0ZM276.53,293.07c0,.3,0,.6.02.9,0,.06,0,.12,0,.19h0s.69-.14.69-.14l38.54,8.73.99.54.29.16c.33-.87.61-1.78.86-2.7,0,0,0,0,0,0,.04-.14.07-.27.11-.41.58-2.3.89-4.73.89-7.26,0-13.97-9.49-25.3-21.2-25.3s-21.2,11.33-21.2,25.3h0ZM293.24,279.44c0-4.53,4.02-8.19,8.99-8.19s8.99,3.67,8.99,8.19-4.03,8.19-8.99,8.19-8.99-3.67-8.99-8.19ZM316.39,305.53c0-.07,0-.13,0-.2,0-.1.01-.2.02-.3,0,.02-.02.04-.02.06,0,.15,0,.31,0,.45h0ZM276.53,293.07c0,.3,0,.6.02.9,0,.06,0,.12,0,.19h0s.69-.14.69-.14l38.54,8.73.99.54.29.16c.33-.87.61-1.78.86-2.7,0,0,0,0,0,0,.04-.14.07-.27.11-.41.58-2.3.89-4.73.89-7.26,0-13.97-9.49-25.3-21.2-25.3s-21.2,11.33-21.2,25.3h0ZM293.24,279.44c0-4.53,4.02-8.19,8.99-8.19s8.99,3.67,8.99,8.19-4.03,8.19-8.99,8.19-8.99-3.67-8.99-8.19ZM316.39,305.08c0,.15,0,.31,0,.45,0-.07,0-.13,0-.2,0-.1.01-.2.02-.3,0,.02-.02.04-.02.06h0ZM298.7,330.02c23.22.44,42.58-27.18,43.23-61.69.65-34.51-17.65-62.84-40.87-63.28-23.22-.44-42.58,27.18-43.23,61.69s17.64,62.84,40.87,63.28ZM302.23,287.64c-4.97,0-8.99-3.67-8.99-8.19s4.02-8.19,8.99-8.19,8.99,3.67,8.99,8.19-4.03,8.19-8.99,8.19ZM267.23,262.32c1.16-30.32,17.12-54.33,35.64-53.62,18.52.71,32.6,25.87,31.43,56.2-.62,16.31-5.53,30.79-12.81,40.58-.01.02-.03.04-.04.06-.05.07-.11.14-.16.21-.14.18-.28.37-.42.55-6.16,7.91-13.92,12.53-22.2,12.21-.73-.03-1.45-.09-2.16-.2.41.03.82.04,1.23.04,8.07,0,15.08-5.37,18.66-13.28,0,.15,0,.31,0,.45,0-.07,0-.13,0-.2,0-.1.01-.2.02-.3.23-.52.45-1.04.65-1.58.33-.87.61-1.78.86-2.7,0,0,0,0,0,0,.04-.14.07-.27.11-.41.58-2.3.89-4.73.89-7.26,0-13.97-9.49-25.3-21.2-25.3s-21.2,11.33-21.2,25.3c0,.3,0,.6.02.9,0,.06,0,.12,0,.19,0,.2.02.39.03.59h0c.37,6.74,2.95,12.75,6.88,17.02-4.36-4.01-8.06-9.61-10.82-16.35h0c-.06-.14-.12-.29-.17-.43-.12-.3-.24-.6-.35-.9,0,0,0-.01,0-.02-3.49-9.07-5.32-20.03-4.87-31.77h0ZM316.39,305.53c0-.07,0-.13,0-.2,0-.1.01-.2.02-.3,0,.02-.02.04-.02.06,0,.15,0,.31,0,.45h0ZM276.53,293.07c0,.3,0,.6.02.9,0,.06,0,.12,0,.19h0s.69-.14.69-.14l38.54,8.73.99.54.29.16c.33-.87.61-1.78.86-2.7,0,0,0,0,0,0,.04-.14.07-.27.11-.41.58-2.3.89-4.73.89-7.26,0-13.97-9.49-25.3-21.2-25.3s-21.2,11.33-21.2,25.3h0ZM293.24,279.44c0-4.53,4.02-8.19,8.99-8.19s8.99,3.67,8.99,8.19-4.03,8.19-8.99,8.19-8.99-3.67-8.99-8.19ZM316.39,305.53c0-.07,0-.13,0-.2,0-.1.01-.2.02-.3,0,.02-.02.04-.02.06,0,.15,0,.31,0,.45h0ZM276.53,293.07c0,.3,0,.6.02.9,0,.06,0,.12,0,.19h0s.69-.14.69-.14l38.54,8.73.99.54.29.16c.33-.87.61-1.78.86-2.7,0,0,0,0,0,0,.04-.14.07-.27.11-.41.58-2.3.89-4.73.89-7.26,0-13.97-9.49-25.3-21.2-25.3s-21.2,11.33-21.2,25.3h0ZM293.24,279.44c0-4.53,4.02-8.19,8.99-8.19s8.99,3.67,8.99,8.19-4.03,8.19-8.99,8.19-8.99-3.67-8.99-8.19ZM316.39,305.53c0-.07,0-.13,0-.2,0-.1.01-.2.02-.3,0,.02-.02.04-.02.06,0,.15,0,.31,0,.45h0ZM276.53,293.07c0,.3,0,.6.02.9,0,.06,0,.12,0,.19h0s.69-.14.69-.14l38.54,8.73.99.54.29.16c.33-.87.61-1.78.86-2.7,0,0,0,0,0,0,.04-.14.07-.27.11-.41.58-2.3.89-4.73.89-7.26,0-13.97-9.49-25.3-21.2-25.3s-21.2,11.33-21.2,25.3h0ZM293.24,279.44c0-4.53,4.02-8.19,8.99-8.19s8.99,3.67,8.99,8.19-4.03,8.19-8.99,8.19-8.99-3.67-8.99-8.19Z"/>
  <path d="M276.53,293.07c0,.3,0,.6.02.9,0,.06,0,.12,0,.19,0,.2.02.39.03.59h0c.37,6.74,2.95,12.75,6.88,17.02,0,0,.01.01.02.02,3.88,3.56,8.29,5.85,13.02,6.53.41.03.82.04,1.23.04,8.07,0,15.08-5.37,18.66-13.28,0,.15,0,.31,0,.45,0-.07,0-.13,0-.2,0-.1.01-.2.02-.3.23-.52.45-1.04.65-1.58.33-.87.61-1.78.86-2.7,0,0,0,0,0,0,.04-.14.07-.27.11-.41.58-2.3.89-4.73.89-7.26,0-13.97-9.49-25.3-21.2-25.3s-21.2,11.33-21.2,25.3h0ZM311.22,279.44c0,4.52-4.03,8.19-8.99,8.19s-8.99-3.67-8.99-8.19,4.02-8.19,8.99-8.19,8.99,3.67,8.99,8.19Z"/>
  <path d="M276.53,293.07c0,.3,0,.6.02.9,0,.06,0,.12,0,.19,0,.2.02.39.03.59h0c.37,6.74,2.95,12.75,6.88,17.02,0,0,.01.01.02.02,3.48,3.78,8.02,6.19,13.02,6.53.41.03.82.04,1.23.04,8.07,0,15.08-5.37,18.66-13.28,0-.02.02-.04.02-.06.23-.52.45-1.04.65-1.58.33-.87.61-1.78.86-2.7,0,0,0,0,0,0,.04-.14.07-.27.11-.41.58-2.3.89-4.73.89-7.26,0-13.97-9.49-25.3-21.2-25.3s-21.2,11.33-21.2,25.3h0ZM311.22,279.44c0,4.52-4.03,8.19-8.99,8.19s-8.99-3.67-8.99-8.19,4.02-8.19,8.99-8.19,8.99,3.67,8.99,8.19Z"/>
  <path d="M320.86,306.3c.15-.17.29-.35.43-.55.05-.07.11-.14.15-.22-.05.07-.11.14-.16.21-.14.18-.28.37-.42.55Z"/>
  <path d="M316.41,305.02c.23-.52.45-1.04.65-1.58.33-.87.61-1.78.86-2.7-.2.33-.39.68-.57,1.05-.24.5-.44,1.01-.59,1.49-.19.61-.31,1.2-.36,1.74h0Z"/>
  <path d="M272.1,294.1c.11.31.22.61.34.9.06.14.12.29.19.42h0c.78,1.63,1.81,2.63,2.67,2.42.82-.2,1.27-1.43,1.27-3.09h0c0-.2,0-.39-.02-.6,0-.06,0-.12-.01-.18,0,.06,0,.12,0,.19h-.01c.11,1.93-.35,3.42-1.24,3.64-.92.23-2.04-.95-2.83-2.8h-.01c-.12-.29-.24-.59-.35-.89h0Z"/>
  <path d="M271.48,295.2l1.08,4.81,8.79,14.55,15.08,6.3,16.8-3.56,9.39-10.81-1.33-.73h0c-.14.18-.28.37-.42.55-1.17,1.38-2.5,2.07-3.43,1.64-.72-.33-1.07-1.23-1.04-2.42,0-.07,0-.13,0-.2,0-.1.01-.2.02-.3.23-.52.45-1.04.65-1.58l-.29-.16-.99-.54-38.54-8.73-.69.14h0s-.01,0-.01,0c.11,1.93-.35,3.42-1.24,3.64-.92.23-2.04-.95-2.83-2.8h-.01s-.02,0-.02,0l-.96.2h0Z"/>
  <path d="M336.65,200.38s-14.96-29.21-34.2-27.55c-3.8.36-11.64.12-25.41,15.56,5.34-2.26,30.22-18.85,59.62,11.99Z"/>
</svg>