<?xml version="1.0" encoding="UTF-8"?>
<svg id="LJ_STUDIO" data-name="LJ STUDIO" xmlns="http://www.w3.org/2000/svg" viewBox="0 0 1279.6562104917 825.691324005">
  <defs>
    <style>
      .cls-1 {
        fill: none;
        stroke: #000;
        stroke-miterlimit: 10;
        stroke-width: .5px;
      }
    </style>
  </defs>
  <g id="ICONE">
    <path class="cls-1" d="M782.5380773514,688.4014589965c108.758441632-44.1847195079,185.5859388893-150.9855999639,185.5859388893-275.4044534205,0-29.032754552-4.1693651825-57.4553883784-12.2028800166-84.5559905206l-48.1252118343.6609770501c7.0675162132,19.6517604754,11.5673117328,40.1933320651,13.4740165844,61.0145552513h-57.4553883784l-11.8724496796,45.8371815292h69.327760474c-3.4574542239,37.7781803448-15.6095942921,74.6411408091-35.312211092,107.1059796108h-61.7263886258l-11.8724496796,45.8371815292h37.9561192924c-14.3384577244,14.5672142045-30.4564600932,27.4311100632-47.8709690039,38.1086882658-5.313341543,19.5500866185-11.8215545631,40.4221273372-19.8805945395,61.3958807048h-.0252923902Z"/>
    <path class="cls-1" d="M514.5316480652,430.4624096033h21.5839128853c15.6095555001,0,37.6256501634-12.6605093529,66.3787531188-40.3713098047h-75.174996444c-6.0760312421,19.2704350219-10.6266830861,33.685119045-12.7622220018,40.3713098047h-.0254475582Z"/>
    <path class="cls-1" d="M511.6334582425,430.4624096033c-.1016738569-.432181778-.2796515966-.5593031932-.3813254535,0h.3813254535Z"/>
    <path class="cls-1" d="M671.0340148701.4369195958c-1.2711365677,0-2.5168255772,0-3.7116970543.0508454521l.0508175325-.0508454521c-26.109155963,0-62.9212601029.0508454521-101.0299483687.0508454521.2796515966,0,.6101595176-.0508454521.864363556-.0508454521-3.788000937-.0762681971-7.4234329005,0-10.9826385654.0762681971-21.3550788211.0254227261-42.8118702912.0508454521-62.7433211552.0762681971l.0762650907-.1525363942h-64.3195180858c-8.5928956113-.1525363847-23.6685566845-.3304954955-38.6171351345,0h-161.9173822048l7.3725959721.1525363942h-1.29656473,2.059235033l57.4299408202,1.2457138227c30.9648875659,1.2202911535,55.9046002141,2.9744594594,76.0902163244,3.8896775215,39.1509907694,1.7541686089,60.5569647071,17.0840737247,73.87845111,24.9651214145,0,0,.1016738569.0508466265.2796515966.1525374549.2287952721.1525374549.5593031932.3813400005.9914849712.7118357991.0508563245,0,.0762650907.0508466265.1016738569.0762675152.4575905442.3559191118,1.0168937374.7881057388,1.6524620213,1.3474040829,0,0,.0254087662.0254233132.0508563245.0508466265.3050603628.2542282833.6609770501.6101449706.9914849712.915217456.3813254535.3559191118.762689699.7118357991,1.1694627108,1.1440224261.3813254535.3304957986.8135460235.7118357991,1.2711365677,1.2711365677.6864246083.6864149103,1.3982579829,1.4999415378,2.1100913575,2.3388914786.2796515966.3304957986.5847119594.7118357991.864363556,1.0677549109.5338944269.6609915971,1.0931588281,1.3728298207,1.6524620213,2.1100865085.6355682839.864373254,1.2711365677,1.8050115987,1.9067048516,2.7710781056.3305079211.4830332535.6355682839.9660616579.9406286467,1.4745182246.762689699,1.2202899413,1.4999318398,2.5422731355,2.2372127727,3.9405214204.2033865059.3813400005.4067730118.8135266275.6101595176,1.194866628.8135460235,1.6524765683,1.627053255,3.3812230762,2.3897429541,5.2625046146,5.5929931396,13.9062323054,8.770834559,34.3461106421,2.9490461472,63.0229582048-.6609770501,3.2795346723-1.4236667491,6.6861810617-2.3642953958,10.2453576326-.1525301814.4830284045-.2796515966,1.0423315976-.432181778,1.5762066286-.3305079211,1.2711365677-.6609770501,2.4660080448-.9406286467,3.6100231973-.2796515966,1.0423315976-.6101595176,2.1355098217-.864363556,3.2286880458l-24.5329202405,91.6235261299-35.4392937152,132.0202253048v.0508563245c-7.3980241343,21.6347304177-11.3893727851,40.9560217641-15.5586991756,57.9892440133-.0508563245.0508563245-.0508563245.1016738569-.0508563245.1525301814-2.4151517203,8.770834559-4.652364493,16.6010404713-6.6353344353,23.5414352693l-.3305079211.9914849712c-.864363556,2.5168643692-1.8050309947,4.9320160895-2.7965159658,7.2709027191-8.0590011844,19.2195786974-20.6432454466,34.549482601-46.4473410468,46.3710759561-1.9829699423.864363556-4.0422049753,1.8050309947-6.2539895857,2.6948033169-7.1183725377-28.0921259053-10.9063540787-57.5062059109-10.9063540787-87.7338319399,0-75.7343384292,23.5922915938-146.1044401988,63.912745074-203.9919909592l.0508563245-.0508369285,26.7192766887-86.5135516967c2.2880303051-8.6945694683,5.2625240106-19.5500769205,8.0081448599-30.2784726555-93.5302309815,75.6834724067-153.4516080086,191.3823088368-153.4516080086,320.8348522399,0,35.2104984431,4.4235498248,69.3786555905,12.7622026058,102.0722508723-.9914849712.1525301814-2.0338262668.3813254535-3.0761481664.5593031932-1.4236667491.2287952721-2.8473528943.4830381025-4.3218565719.7118333746-.2796515966.0508563245-.5593031932.1016738569-.8135266275.1016738569-43.1932151407,6.4065391631-98.6910423431,10.6266830861-169.6967317926,12.8130395343-.1525398794.0508563245-.2288049701.0508563245-.3304982231,0,0,0,0,.0508563245-.0508466265,0-.0338945183-.0338654243-.0677987346-.0338654243-.1016932529,0q-.0508466265.0508563245-.1016932529,0c-.0338945183-.0338654243-.0677987346-.0338654243-.1016932529,0-.0508466265.0508563245,0,.0508563245-.0508466265,0-4.7540480479.1016738569-9.5843708845.2796515966-14.4655354985.3813254535-11.8724157366.2796515966-24.2532831909.4830381025-37.1171887477.6609770501-2.6185406507.0508563245-5.2625046146.1016738569-7.9318918917.1016738569-2.6185406507.0508563245-5.3133512411.0508563245-7.9827385182.1016738569-2.6948081659,0-5.364195443.0508563245-8.1098514476.0508563245-5.4150420695.0508563245-10.9571970684.1016738569-16.601044108.1016738569l29.1852944314.1016738569,9.4064101163.0508563245,71.7937927638.2796515966c65.539798329.3813254535,120.0461405602.7118333746,165.3240188962.9914849712,6.2539895857.0508563245,12.3300208278.1016738569,18.2280937263.1525301814h2.0338262668c5.3133415431.0508563245,10.4487441385.0508563245,15.5078622472.1016738569h334.7665272545s.3305079211-.432181778.864363556-1.2711365677c.2796515966-.3813254535.6101595176-.8135460235.9914849712-1.3728104247,6.0252137096-8.5420392869,26.0074433141-37.2442859178,45.8372203212-69.429473123,2.2372127727-3.6608795218,4.550690636-7.3980241343,6.7879034087-11.160577513l-6.7879034087,30.659807807-11.6182068493,52.2945770168-19.499269086,88.1660137179c-2.5677206937,9.5843805825-5.0845462709,18.5077453229-7.6013718482,26.7192766887-.9915237632,3.2795152763-1.9829699423,6.5082518121-2.9490461472,9.5843805825-.1017126489.3813254535-.2287952721.762650907-.3813254535,1.0931588281-23.719413009-10.0165623605-51.1505230722-32.1343308807-70.0396326406-65.1076165511h-51.5318873177c3.8896747939,8.8725472079,8.1098575089,17.2620175214,12.5333879377,25.2447924071,3.2286977438,5.745523321,6.5590693446,11.3385552527,10.0674186849,16.6518967957-20.7449580955-11.160577513-40.0916582081-25.2956099395-57.0486153667-41.8458328783h-61.1162291082c2.0846825912,2.7965159658,4.2710002474,5.5929931396,6.5590693446,8.3132440147,46.7778101758,57.0485765747,114.4022910961,96.4284402002,191.1281144965,106.3941074442-15.4316165525,30.8886030792-30.2276260291,40.5746575186-46.0659768013,44.5660449614-17.4145864948,4.3727128964-39.7102939626-3.5083493404-49.2184094544-6.7879034087-.1016738569-.0508175325-.1525301814-.0508175325-.2796515966-.1017126489l-.8135460235-.3813254535-18.9399271008-8.3894703134-1.194871477-.5593031932c-59.0824416334-28.4734901509-109.19062341-72.7852922819-144.8333036311-127.3170432794-1.3728104247-1.4236667491-2.6948033169-2.8981898228-3.9913874429-4.4998343115-17.3637301703-20.8720795107-48.5065760798-35.6934977535-82.7509983179-46.2185069827,45.7355076722,121.8003152304,147.426433091,216.423724436,273.5231573351,252.4476913185l1.2711365677.2796128046c6.3048265142,1.4236667491,12.5842442622,1.6524620213,18.9907834253.5593031932,5.5421368152-.9406286467,10.830069592-2.0337874748,15.9908809536-3.3303716007,12.1012061597-2.9490461472,23.0583971669-6.7879034087,32.9732856704-11.6690243817,13.4740553764-6.5082130201,25.1938972906-14.7960482686,35.4392549232-24.9651408105,16.2705325502-16.0417372781,29.032793344-36.8121429318,40.1425145326-62.8195474539,8.5420004949-19.8805945395,16.0925548106-42.8118702912,23.4905789449-69.0481476694,1.5253793981-5.3641978675,2.9998636797-10.830069592,4.550690636-16.4739190561l9.101303688-34.015626966,12.3300402238-45.8371815292,28.702285423-107.1059796108,12.2537751331-45.8371815292,5.7963796455-21.5839128853,7.4997367832-27.9904132564c5.2116288941-18.9907834253,12.1520624842-31.7529860311,19.168761165-40.3712904087,2.2372127727-2.7964965698,4.550690636-5.1353831994,6.7879034087-7.1183725377,7.8301671203-6.9658229603,15.050291099-9.3047289859,19.067048516-10.1182556134,2.0337874748-.3813448495,3.2286589518-.3813448495,3.3303716007-.3813448495l12.3300402238-.5593031932,3.2795540683-.1525301814,66.4296094433-1.8050115987,6.6861907597-.1525301814-13.7028894405-22.8296018948-11.9487147703-19.9822683965h-206.1275492709v.0508369285h-17.7450944158v-71.9463180962c25.9565869896,5.0337093425,53.1080454563,12.1520624842,77.9206560853,21.126283549h90.9117121513c-53.616531117-45.5575299326-120.7579739348-70.3701211656-191.7128264559-70.3701211656-23.2617836727,0-45.9388941781,2.6948130149-67.6752984528,7.7793592858-5.4658717245,26.2871046087-15.9908809536,65.4381147741-27.9904132564,107.1568068412,18.4568889984-31.2191110002,45.4558560756-55.4723990401,72.7344359575-65.0059232981v71.2344847216h-74.4632018614c-4.4235692208,15.1773737221-8.9742210648,30.6089708786-13.5249117009,45.8371815292h88.0134835365v57.1757367818c.2796515966-.3305079211.6101595176-.7118333746.864363556-1.0423412956l45.0236355056-56.1333954862,25.7277917175-.2287952721c9.9148497115,0,17.0332610413.9914849712,21.9143820143,2.8981898228,20.2619199931,7.6013912442,1.3728492167,29.8462811795-16.8552833016,55.1927280475l-29.0836108765,36.2528009467c-.3305079211.3813254535-.6101207256.762689699-.864363556,1.0931588281-2.0337874748,2.4151517203-3.9404923264,4.7032208174-5.847197178,7.0166598888-17.1857912227,20.4144501745-32.4139824772,37.1934683854-46.4473410468,50.7691976187-37.0663469702,36.1511270897-65.1076165511,50.3878721652-95.1318560742,53.0572279238-3.7117358463.3305079211-7.4488416668.4830381025-11.2876989282.4830381025h-27.2277623494c-2.7456596413,0-5.415054192,0-7.9827360937-.0508563245-.762689699.0508563245-1.5761969305.0508563245-2.3642953958,0-35.2104984431-.1525301814-50.9725841246-2.2880303051-51.4810309933-25.346466264,0-.9914849712.0508563245-1.9829699423.0508563245-2.9998636797.3305079211-7.1183725377,1.6524620213-15.4316165525,3.788000937-25.1430797581.2796515966-1.2711365677.5593031932-2.5676819017.8135460235-3.8896747939.432181778-1.8558485271.9406286467-3.8388184694,1.4236667491-5.84723597.6101595176-2.2880303051,1.194871477-4.652364493,1.8558485271-7.1183725377l7.7793495878-28.9564894613,28.702246631-107.1568165392,12.2537751331-45.8371815292,3.9405311184-14.7197637819,18.3552151415-68.565109567,4.1693263905-15.5587088736c2.4151517203-8.9742210648,4.652364493-17.1857621287,6.7370082922-24.6854698179,1.3897237408-4.9998051262,1.406714641-5.0336996445.0508563245-.1016932529v-.1016932529c3.3303716007-12.3300208278,6.3556828387-22.7787649663,9.1521988045-31.7021491027.4830381025-1.5762114776.9914849712-3.0761481664,1.4745230736-4.55067124,38.4900137193-14.185883902,80.0561950011-21.9143917123,123.4273296934-21.9143917123,197.4583109849,0,358.0791866477,160.6208174748,358.0791866477,358.0792060437,0,172.010209656-121.8511327629,316.080784796-283.8193325002,350.2998370599-7.0675162132,11.0589036561-14.7197831779,21.6855867422-23.2109661403,31.7529666351-9.101303688,10.9063734747-19.1178660485,21.0245709001-30.0750570556,30.2276648211,217.9491038341-10.9571910072,391.8659407576-191.7128264559,391.8659407576-412.3058384903S898.6945431178.4369195958,671.0340148701.4369195958Z"/>
  </g>
  <path id="STAR" class="cls-1" d="M1173.6159972278,11.2415802321c-17.109526132,83.3865520548-18.3806626997,84.1746699161-138.1471128713,85.1152985628,119.4105722764.9660665069,120.3766484813,1.728746508,106.0381907569,85.1152937138,17.109526132-83.3865569038,18.3806626997-84.1746650671,138.1471128713-85.1153034118-119.4105722764-.9660665069-120.3766484813-1.728746508-106.0381907569-85.1152888648Z"/>
</svg>