<?xml version="1.0" encoding="UTF-8"?>
<svg id="Calque_1" data-name="Calque 1" xmlns="http://www.w3.org/2000/svg" viewBox="0 0 75.65179 75.65179">
  <defs>
    <style>
      .cls-1 {
        fill: #fff;
      }

      .cls-1, .cls-2 {
        fill-rule: evenodd;
      }

      .cls-3 {
        fill: #ec591f;
      }
    </style>
  </defs>
  <rect class="cls-3" x="4.38062" y="4.38062" width="66.89055" height="66.89055" rx="12.13433" ry="12.13433" transform="translate(-7.77046 9.85146) rotate(-13.46991)"/>
  <g>
    <polygon class="cls-1" points="67.5159 13.60592 67.5159 65.16592 65.9559 65.16592 65.9559 66.73587 64.38589 66.73587 64.38589 68.29586 61.2659 68.29586 61.2659 69.85592 19.07589 69.85592 19.07589 68.29586 15.9559 68.29586 15.9559 66.73587 14.38589 66.73587 14.38589 65.16592 12.82589 65.16592 12.82589 63.60592 11.2659 63.60592 11.2659 62.04586 9.7059 62.04586 9.7059 60.48587 8.13589 60.48587 8.13589 12.04586 9.7059 12.04586 9.7059 10.48587 11.2659 10.48587 11.2659 8.91592 12.82589 8.91592 12.82589 7.35592 15.9559 7.35592 15.9559 5.79586 58.13589 5.79586 58.13589 7.35592 61.2659 7.35592 61.2659 8.91592 62.82589 8.91592 62.82589 10.48587 64.38589 10.48587 64.38589 12.04586 65.9559 12.04586 65.9559 13.60592 67.5159 13.60592"/>
    <path class="cls-2" d="M6.57589,15.16592v42.19h1.56V15.16592h-1.56ZM8.13589,12.04586v3.12006h1.57001v-3.12006h-1.57001ZM8.13589,57.35592v3.12994h1.57001v-3.12994h-1.57001ZM9.7059,10.48587v1.56h1.56v-1.56h-1.56ZM9.7059,60.48587v1.56h1.56v-1.56h-1.56ZM11.2659,8.91592v1.56995h1.56v-1.56995h-1.56ZM11.2659,62.04586v1.56006h1.56v-1.56006h-1.56ZM12.82589,7.35592v1.56h3.13v-1.56h-3.13ZM15.9559,5.79586v1.56006h42.17999v-1.56006H15.9559ZM58.13589,7.35592v1.56h3.13v-1.56h-3.13ZM61.2659,8.91592v1.56995h1.56v-1.56995h-1.56ZM62.82589,10.48587v1.56h1.56v-1.56h-1.56ZM69.07589,18.29586v-3.12994h-1.56v-1.56h-1.56v-1.56006h-1.57001v3.12006h1.57001v42.19h-1.57001v3.12994h-1.56v1.56h-1.56v1.56006h-3.13v1.56H15.9559v-1.56h-3.13v1.56h1.56v1.56995h1.57001v1.56h3.12v1.56006h42.19v-1.56006h3.12v-1.56h1.57001v-1.56995h1.56v-1.56h1.56v-3.12006h1.56V18.29586h-1.56Z"/>
    <polygon class="cls-2" points="25.32589 51.10592 28.4559 51.10592 28.4559 49.54586 31.57589 49.54586 31.57589 47.98587 34.7059 47.98587 34.7059 46.41592 37.82589 46.41592 37.82589 44.85592 40.9559 44.85592 40.9559 43.29586 44.07589 43.29586 44.07589 41.73587 47.2059 41.73587 47.2059 40.16592 50.32589 40.16592 50.32589 38.60592 53.4559 38.60592 53.4559 37.04586 55.0159 37.04586 55.0159 35.48587 53.4559 35.48587 53.4559 33.91592 50.32589 33.91592 50.32589 32.35592 47.2059 32.35592 47.2059 30.79586 44.07589 30.79586 44.07589 29.23587 40.9559 29.23587 40.9559 27.66592 37.82589 27.66592 37.82589 26.10592 34.7059 26.10592 34.7059 24.54586 31.57589 24.54586 31.57589 22.98587 28.4559 22.98587 28.4559 21.41592 25.32589 21.41592 25.32589 19.85592 20.63589 19.85592 20.63589 52.66592 25.32589 52.66592 25.32589 51.10592"/>
  </g>
</svg>