<?xml version="1.0" encoding="UTF-8"?>
<svg xmlns="http://www.w3.org/2000/svg" version="1.1" viewBox="0 0 1704.95 1110">
  <!-- Generator: Adobe Illustrator 29.5.1, SVG Export Plug-In . SVG Version: 2.1.0 Build 141)  -->
  <defs>
    <style>
      .st0 {
        fill: none;
        stroke: #fff;
        stroke-miterlimit: 40;
        stroke-width: 3px;
      }

      .st1 {
        fill: #fff;
      }
    </style>
  </defs>
  <g id="Calque_15">
    <path id="Penalty_area_line" class="st0" d="M1659.75,244.71h-253.72v619.99h253.72"/>
  </g>
  <g id="Calque_16">
    <path id="Goal_area_line" class="st0" d="M1659.75,413.85h-84.57v281.7h84.57"/>
  </g>
  <g id="Calque_17">
    <circle id="Penalty_mark" class="st1" cx="1491.53" cy="554.7" r="11.53"/>
  </g>
  <g id="Calque_10">
    <path id="Penalty_arc" class="st0" d="M1406.04,442.96c-61.71,47.22-73.47,135.52-26.25,197.24,7.55,9.87,16.38,18.7,26.25,26.25"/>
  </g>
  <g id="Calque_11">
    <path id="Penalty_area_line1" data-name="Penalty_area_line" class="st0" d="M45.19,864.7h253.72V244.71H45.19"/>
  </g>
  <g id="Calque_12">
    <path id="Goal_area_line1" data-name="Goal_area_line" class="st0" d="M45.19,695.55h84.57v-281.7H45.19"/>
  </g>
  <g id="Calque_2">
    <circle id="Penalty_mark1" data-name="Penalty_mark" class="st1" cx="213.42" cy="554.7" r="11.53"/>
  </g>
  <g id="Calque_3">
    <path id="Penalty_arc1" data-name="Penalty_arc" class="st0" d="M298.91,666.45c61.71-47.22,73.47-135.52,26.25-197.24-7.55-9.87-16.38-18.7-26.25-26.25"/>
  </g>
  <g id="Calque_4">
    <circle id="Centre_mark" class="st1" cx="852.47" cy="554.7" r="11.53"/>
  </g>
  <g id="Calque_5">
    <circle id="Centre_circle" class="st0" cx="852.47" cy="554.7" r="140.7"/>
  </g>
  <g id="Calque_6">
    <path id="Centre_line" class="st0" d="M852.47,1077.51V31.89"/>
  </g>
  <g id="Calque_7">
    <path id="Border" class="st0" d="M45.19,1077.51V31.89h1614.56v1045.62H45.19Z"/>
  </g>
  <g id="Calque_8">
    <path id="Corner_arcs" class="st0" d="M75.95,1077.51c0-16.98-13.77-30.75-30.75-30.75M45.19,62.65c16.98,0,30.75-13.77,30.75-30.75M1629,31.89c0,16.98,13.77,30.75,30.75,30.75M1659.75,1046.76c-16.98,0-30.75,13.77-30.75,30.75"/>
  </g>
</svg>