<?xml version="1.0" encoding="UTF-8"?>
<svg id="Mode_Isolation" data-name="Mode Isolation" xmlns="http://www.w3.org/2000/svg" viewBox="0 0 716.34 148.06">
  <path d="M120.29,90.05c-8.04-7.89-16.02-15.84-23.9-23.88-2.11-2.16-4.41-3.01-7.36-3-12.79.08-25.58.03-38.37.03-7.82,0-15.63.06-23.44-.03-4.73-.05-6.65-2.09-6.68-6.78-.03-3.79-.08-7.6.05-11.39.03-.97.5-2.16,1.18-2.85,6.73-6.85,13.52-13.64,20.38-20.36.73-.71,2.02-1.24,3.05-1.24,16.66-.07,33.32-.07,49.98-.05,5.55,0,7.45,1.97,7.46,7.52.02,6.62,0,13.26,0,19.89,0,2.96.67,3.64,3.69,3.65,4.42.03,8.85.03,13.27,0,2.75-.02,3.45-.74,3.46-3.45.02-5.18-.03-10.36.02-15.54.03-2.16-.79-3.86-2.28-5.35-8.32-8.29-16.63-16.59-24.93-24.9-1.54-1.54-3.33-2.32-5.55-2.32-17.28.03-34.57.03-51.85,0-2.14,0-3.89.7-5.39,2.2C22.82,12.47,12.57,22.74,2.28,32.96.69,34.53-.03,36.28,0,38.49c.07,4,.07,8.01,0,12.01-.04,2.37.76,4.23,2.45,5.9,8.29,8.22,16.54,16.48,24.77,24.77,1.71,1.73,3.6,2.56,6.08,2.54,10.37-.07,20.75-.03,31.11-.03s20.88-.02,31.31,0c4.72,0,6.84,2.12,6.9,6.84.05,4.21.07,8.43-.04,12.63-.02.85-.47,1.87-1.07,2.47-6.85,6.93-13.74,13.82-20.68,20.65-.61.61-1.65,1.09-2.49,1.09-16.93.07-33.88.07-50.81.03-5.11-.02-6.99-2.02-7-7.11-.02-6.77,0-13.53,0-20.31,0-2.85-.71-3.61-3.52-3.64-4.5-.04-8.99-.03-13.48,0-2.74.02-3.46.71-3.48,3.46-.04,5.17,0,10.35-.02,15.53,0,2.12.71,3.83,2.25,5.35,8.36,8.25,16.67,16.55,24.96,24.88,1.61,1.62,3.44,2.36,5.74,2.35,17.14-.04,34.29-.04,51.44,0,2.3,0,4.14-.73,5.75-2.33,10.26-10.26,20.53-20.51,30.82-30.75,1.46-1.45,2.13-3.13,2.1-5.19-.06-4.28-.13-8.57.03-12.84.11-2.79-.86-4.85-2.82-6.77Z"/>
  <path d="M443.51,143.98c0,3.47.49,3.94,3.98,3.94h12.44c3.47,0,4.02-.53,4.02-3.92v-47.48c-6.38-.78-13.17-1.48-20.44-2.09v49.55Z"/>
  <path d="M638.33,102.18c-.02,1.79,0,3.57,0,5.36,0,1.42-.41,2.42-1.42,3.43-5.13,5.13-10.16,10.36-15.27,15.51-.51.51-1.42.92-2.13.92-11.41.06-22.8.08-34.21.02-2.32-.02-3.96-.62-5.01-1.85-2.71,2.28-5.15,4.72-7.39,7.3,4.41,4.39,8.82,8.8,13.3,13.15,1.11,1.07,3.04,1.79,4.62,1.81,11.53.14,23.06.06,34.62.08,1.97.02,3.57-.66,4.99-2.07,8.66-8.72,17.36-17.42,26.1-26.06,1.58-1.58,2.32-3.3,2.3-5.52-.04-5.11-.04-10.24-.02-15.35-7.39.96-14.18,2.05-20.48,3.26Z"/>
  <path d="M216.55,106.47c-2.38-2.28-3.21-2.3-5.51,0-5.49,5.46-11.12,10.78-16.31,16.5-3.07,3.39-6.27,4.88-10.92,4.63-7.37-.41-8.94-1.65-8.95-9.1v-49.5c0-16.92,0-33.84,0-50.75,0-3.33-.47-3.8-3.86-3.81-4.28,0-8.57-.02-12.85,0-3.13.02-3.61.5-3.62,3.63,0,6.91-.04,13.81.03,20.71.02,1.79-.57,2.44-2.4,2.38-3.38-.12-6.77-.07-10.16-.02-3.23.07-3.74.61-3.75,3.76-.02,4.35-.02,8.7,0,13.05.02,2.96.81,3.77,3.84,3.84,3.11.06,6.23.02,9.33.02s3.12,0,3.12,3.04c0,16.64.03,33.28-.03,49.92,0,2.21.53,4.02,2.11,5.58,8.62,8.57,17.16,17.22,25.88,25.69,1.1,1.07,3,1.62,4.61,1.8,2.59.29,5.26.29,7.86,0,1.6-.18,3.52-.71,4.61-1.78,8.74-8.55,17.33-17.26,25.93-25.94,1.81-1.83,1.77-3.21-.02-4.98-2.96-2.91-5.92-5.8-8.92-8.67Z"/>
  <path d="M307.74,127.45c-12.24-.03-24.46-.02-36.7-.02-.62,0-1.25,0-1.87,0-4.78-.08-6.82-2.06-6.83-6.86-.03-12.49,0-25,0-37.49s0-25,0-37.49c0-3.91-.45-4.35-4.43-4.35-3.94,0-7.89,0-11.82,0-3.66,0-4.32.66-4.32,4.34,0,11.12,0,22.23,0,33.35s.07,22.79-.05,34.18c-.03,3.45.89,6.1,3.48,8.59,8.17,7.84,16.12,15.92,24.08,23.98,1.59,1.61,3.31,2.27,5.52,2.25,6.22-.07,12.44-.08,18.66,0,2.39.03,4.23-.77,5.88-2.47,3.71-3.82,7.53-7.52,11.27-11.31,1.28-1.3,2.99-2.52,2.13-4.74-.91-2.37-3.1-1.97-4.97-1.98Z"/>
  <path d="M332.56,41.26c-4.08-.02-8.15-.02-12.23,0-3.18,0-3.76.55-3.76,3.76-.02,5.17-.02,10.34-.02,15.53v83.25c0,3.69.45,4.12,4.21,4.12h12.44c3.14-.02,3.8-.68,3.8-3.73V45.61c0-3.92-.43-4.35-4.43-4.35Z"/>
  <path d="M544.33,127.46c-3.39-.06-6.79.02-10.18-.04-4.76-.06-6.59-1.81-6.96-6.55-.06-.76-.04-1.52-.04-2.28v-5.36c-5.62-3.16-12.37-5.93-20.36-8.35,0,3.41-.02,6.81-.04,10.22-.02,2.09.68,3.69,2.15,5.15,7.51,7.43,14.94,14.96,22.47,22.39,6.16,6.07,3.61,5.23,13.13,5.25,2.38.02,3.22-.88,3.24-3.3.02-4.56.02-9.11,0-13.67-.02-2.77-.66-3.43-3.43-3.47Z"/>
  <path d="M183.55,61.78c5.94.06,11.87.02,17.81.02h0c6.35,0,12.7.03,19.05-.03,2.9-.02,3.78-.96,3.79-3.69.02-4.21,0-8.41,0-12.62,0-3.76-.51-4.31-4.28-4.32-7.39-.02-14.78.02-22.16-.02-2.28,0-4.12.76-5.71,2.4-3.76,3.84-7.6,7.61-11.37,11.45-1.35,1.37-3.01,2.79-2.02,4.99.94,2.07,3.07,1.82,4.9,1.83Z"/>
  <path d="M509.86,127.44c-6.83.02-13.67-.03-20.5.02-2.32.02-3.06.83-3.09,3.19-.04,4.76-.05,9.51,0,14.27.03,2.24.8,2.96,3.05,2.98,3.39.03,6.77,0,10.15,0s6.91-.02,10.36,0c1.82.02,3-.86,3.04-2.64.08-5.04.06-10.07-.04-15.11-.03-1.76-1.1-2.72-2.96-2.72Z"/>
  <path d="M507.89,25.58c5.66.05,11.32.07,16.99,0,2.13-.02,2.99-.97,3.01-3.12.05-5.59.05-11.17,0-16.77-.02-2.56-.64-3.28-3.16-3.33-5.6-.11-11.2-.07-16.79-.04-1.92.02-2.89,1.06-2.87,3.01,0,2.83,0,5.66,0,8.49v8.69c0,1.89.88,3.06,2.83,3.08Z"/>
  <path d="M687.06,90.83c-.66-.02-1.31-.02-1.97-.02-9.69-.16-18.41-.37-26.29-.7-.02-5.42-.02-10.81.02-16.23.02-2.15-.72-3.82-2.24-5.34-8.39-8.31-16.74-16.66-25.05-25.05-1.58-1.58-3.32-2.28-5.54-2.26-11.68.04-23.35.04-35.03,0-1.15-.02-2.18.18-3.08.64-.25,7.8-.23,14.34.7,19.86,14.18-.02,28.32-.02,42.5,0,5.31,0,7.2,1.91,7.2,7.26,0,6.63,0,13.26.02,19.88-.02.39-.02.76,0,1.15-50.79-1.74-59.98-7.33-57.62-26.84.55-4.74,1.83-10.28,3.32-16.81-.04.14-.1.31-.14.45.18-.7.37-1.4.53-2.11-7.96,7.94-15.88,15.88-23.86,23.8-1.52,1.52-2.24,3.28-2.24,5.38v9.5c-7.33,2.77-17.22,4.47-31.15,5.54,0-4.9.02-9.79.04-14.69,0-2.32-.74-4.06-2.38-5.66-7.41-7.35-14.75-14.75-22.16-22.1-5.91-5.87-4.06-5.21-12.8-5.23-.12,0-.27-.02-.41,0-2.38.06-3.14.72-3.16,3.08-.06,4.76-.06,9.52-.02,14.28.02,2.34.8,3.08,3.18,3.1,3.24.04,6.51,0,9.75.02,5.66,0,7.59,1.89,7.59,7.57.02,6.92,0,13.81,0,20.72-11.98.41-26.12.62-42.82.76V4.18c0-3.65-.49-4.14-4.21-4.17h-12.02c-3.76.02-4.21.43-4.21,4.14v50.03c-.21.1-.39.21-.6.31-3.61-3.69-7.24-7.35-10.79-11.08-1.4-1.48-2.98-2.15-4.97-2.15-10.42.02-20.87-.08-31.31.08-1.54.02-3.47.78-4.58,1.87-8.66,8.43-17.15,17.03-25.73,25.55-1.35,1.35-2.09,2.87-2.09,4.78v17.5c0,8.19,0,16.35.08,24.54.02,1.5.72,3.37,1.74,4.43,8.5,8.7,17.09,17.3,25.81,25.77,1.21,1.17,3.26,1.99,4.95,2.03,8.37.21,16.72.16,25.1.04,1.35-.02,3.06-.43,4-1.29,4.76-4.51,9.4-9.15,13.93-13.91.7-.74,1.05-2.46.68-3.37-.37-.86-1.83-1.35-2.91-1.76-.74-.27-1.64-.08-2.46-.08-14.38,0-28.77.02-43.15-.02-5.34,0-7.24-1.99-7.26-7.26v-50.97c0-5.56,1.89-7.45,7.49-7.45,13.42-.02,26.82,0,40.24,0,2.13,0,4.29-.04,6.42,0,3.53.08,5.05,1.52,5.31,4.99.08,1.17.1,2.34.1,3.51v20.66c-4.53.02-9.21.04-14.08.06,1.21,0,2.4.02,3.57.02,3.59.02,7.1.02,10.51.04,7.22.02,14.02.06,20.44.12,9.13.06,17.46.14,25.07.29h.39c6.28.12,12.05.27,17.36.45,7.74.29,14.47.66,20.36,1.15,16.29,1.37,25.9,3.76,31.17,7.88,5.95,4.66,6.36,11.59,4.53,21.91-.66,3.78-1.62,7.98-2.71,12.7,1.31-4.29,2.5-8.19,3.73-11.68,3.57-10.18,7.39-17.17,15.02-21.98,10.18-6.42,27.17-8.97,59.42-10.03,6.24-.21,13.05-.37,20.5-.47,12.58-.21,26.96-.29,43.44-.35.31-.02.62-.02.92,0,4.25-.02,8.64-.04,13.17-.06-10.53-.04-20.25-.08-29.28-.12Z"/>
  <path d="M675.52,43.05c5.76-14.83,6.01-14.97,27.26-14.38-21.13-.92-21.28-1.07-16-15.92-5.76,14.83-6.01,14.97-27.27,14.38,21.13.92,21.28,1.07,16,15.92Z"/>
</svg>