<?xml version="1.0" encoding="UTF-8"?>
<svg id="Calque_2" xmlns="http://www.w3.org/2000/svg" version="1.1" viewBox="0 0 500 500">
  <!-- Generator: Adobe Illustrator 29.5.1, SVG Export Plug-In . SVG Version: 2.1.0 Build 141)  -->
  <path d="M206.4,437.25l-5.29-1.5,7.3-25.65-15.36-4.37,1.3-4.57,20.65,5.88-8.6,30.22h0Z"/>
  <path d="M171.39,401.79c.57-1.26,1.24-2.42,1.99-3.5.75-1.08,1.67-1.93,2.75-2.57,1.08-.64,2.37-.95,3.87-.94,1.5,0,3.27.48,5.33,1.42,1.52.7,2.71,1.52,3.56,2.48.85.95,1.44,2,1.76,3.13.32,1.13.39,2.33.19,3.6s-.59,2.55-1.18,3.86l-.7,1.52-5-2.29.68-1.48c.74-1.63,1.05-3.01.91-4.16-.14-1.14-.97-2.06-2.49-2.76-.8-.37-1.52-.55-2.15-.55-.63,0-1.21.17-1.73.49-.52.33-.99.81-1.42,1.46-.42.64-.84,1.41-1.24,2.29l-8.98,19.65-5-2.29,8.85-19.37h0s0,0,0,0Z"/>
  <path d="M149.86,388.86c.75-.94,1.22-1.88,1.43-2.8.21-.92.19-1.82-.05-2.7-.24-.88-.65-1.71-1.25-2.5-.59-.79-1.33-1.52-2.2-2.22-.94-.74-1.84-1.27-2.68-1.58-.84-.31-1.6-.45-2.29-.44-.69.02-1.3.18-1.84.48-.54.3-.99.68-1.35,1.14-.75.94-1.08,1.81-1.01,2.59s.29,1.47.65,2.05c.62,1.01,1.4,2.12,2.33,3.33.93,1.21,2.07,2.71,3.41,4.52.84,1.11,1.43,2.17,1.78,3.17s.51,1.95.49,2.83c-.02.88-.19,1.7-.51,2.46s-.73,1.46-1.24,2.1c-.98,1.24-2.09,2.11-3.33,2.61s-2.52.71-3.84.64c-1.32-.07-2.64-.4-3.95-.96-1.31-.57-2.52-1.29-3.62-2.16-1.29-1.02-2.37-2.15-3.25-3.38-.88-1.23-1.48-2.53-1.82-3.88-.33-1.35-.37-2.71-.1-4.09.27-1.38.91-2.71,1.93-4l4.31,3.41c-1.14,1.68-1.49,3.23-1.04,4.65s1.42,2.72,2.92,3.9c.51.4,1.07.76,1.68,1.07.61.31,1.23.52,1.86.63.63.1,1.25.06,1.87-.12.62-.19,1.17-.59,1.66-1.21.69-.88.96-1.77.81-2.7-.15-.92-.56-1.86-1.24-2.8-.07-.1-.36-.48-.85-1.15-.5-.67-1.05-1.42-1.67-2.25-.62-.83-1.23-1.63-1.82-2.42-.59-.79-1.01-1.35-1.26-1.7-.6-.89-1.03-1.79-1.29-2.7-.25-.91-.36-1.81-.31-2.69.04-.88.22-1.72.54-2.52.31-.8.73-1.52,1.23-2.17,1.09-1.38,2.31-2.34,3.64-2.87,1.34-.53,2.71-.74,4.12-.64,1.41.11,2.82.48,4.22,1.12,1.4.64,2.71,1.44,3.93,2.4,1.4,1.11,2.59,2.33,3.56,3.65.97,1.33,1.63,2.71,1.99,4.15.36,1.44.37,2.94.04,4.49-.33,1.55-1.08,3.1-2.26,4.64l-4.31-3.41h0,0Z"/>
  <path d="M116.15,388.18l-17.08-18.85,3.52-3.19,6.71,7.4,19.76-17.9,3.69,4.08-19.76,17.9,6.68,7.37-3.52,3.19h0Z"/>
  <path d="M93.9,362.52l-2.92-4.66,15.52-9.7c.9-.56,1.78-1.17,2.64-1.83.87-.66,1.54-1.43,2.01-2.3s.69-1.87.64-3c-.05-1.13-.55-2.45-1.5-3.97-.95-1.52-1.92-2.55-2.91-3.08-.99-.54-1.99-.78-2.98-.73-.99.05-1.97.32-2.95.8-.97.49-1.91,1.01-2.8,1.57l-15.52,9.7-2.92-4.66,17.05-10.66c1.72-1.07,3.37-1.74,4.97-2.02s3.12-.2,4.58.23c1.46.42,2.82,1.17,4.08,2.25,1.26,1.08,2.41,2.44,3.43,4.08s1.75,3.27,2.17,4.87c.42,1.61.5,3.16.24,4.65-.26,1.49-.86,2.9-1.8,4.21-.94,1.32-2.27,2.51-3.99,3.58l-17.05,10.66h0Z"/>
  <path d="M74.92,329.87l-4.62-12.18c-.85-2.25-1.21-4.34-1.07-6.28.14-1.94.68-3.68,1.61-5.23.93-1.55,2.2-2.91,3.79-4.1,1.59-1.19,3.4-2.16,5.43-2.93,2.03-.77,4.03-1.24,6.01-1.41,1.97-.17,3.83.01,5.55.55,1.73.54,3.29,1.48,4.68,2.83,1.39,1.35,2.52,3.15,3.37,5.4l4.62,12.17-29.37,11.16h0ZM98.13,315.17l-1.92-5.06c-.76-2-1.65-3.54-2.67-4.61-1.02-1.07-2.14-1.79-3.36-2.16-1.22-.37-2.52-.44-3.89-.21-1.38.22-2.8.62-4.28,1.18-1.48.56-2.81,1.22-3.99,1.96-1.18.74-2.1,1.66-2.77,2.75-.67,1.09-1.03,2.37-1.08,3.85-.05,1.48.31,3.22,1.07,5.22l1.92,5.06,20.98-7.97h0Z"/>
  <path d="M63.47,295.77l-1.24-5.36,30.61-7.05,1.24,5.36-30.61,7.05h0Z"/>
  <path d="M57.89,266.33c-.2-2.34.06-4.47.78-6.4.72-1.93,1.77-3.6,3.15-5.02,1.38-1.41,3.03-2.55,4.96-3.41,1.93-.86,4-1.38,6.22-1.57,2.25-.19,4.4-.03,6.44.49,2.05.52,3.87,1.35,5.47,2.51,1.6,1.16,2.91,2.63,3.93,4.41,1.02,1.78,1.63,3.84,1.83,6.18.2,2.34-.05,4.47-.75,6.4-.7,1.93-1.75,3.6-3.12,5.02-1.38,1.41-3.03,2.55-4.96,3.41-1.93.86-4.02,1.38-6.27,1.58-2.22.19-4.35.03-6.4-.49-2.05-.52-3.87-1.35-5.47-2.51-1.6-1.16-2.92-2.63-3.96-4.41-1.04-1.78-1.65-3.84-1.85-6.18h0ZM62.36,265.95c.14,1.67.6,3.08,1.38,4.23.78,1.15,1.76,2.07,2.95,2.73,1.19.66,2.52,1.12,3.98,1.36,1.46.24,2.94.3,4.43.17,1.49-.13,2.94-.44,4.34-.92,1.4-.49,2.63-1.16,3.69-2.02,1.06-.86,1.88-1.92,2.44-3.19.57-1.27.78-2.74.64-4.4-.14-1.67-.6-3.08-1.38-4.23-.78-1.15-1.76-2.06-2.95-2.73-1.19-.66-2.52-1.12-3.98-1.36-1.46-.24-2.94-.3-4.43-.17-1.49.13-2.94.44-4.34.92-1.4.49-2.63,1.16-3.69,2.02-1.06.86-1.87,1.92-2.44,3.19s-.78,2.74-.64,4.4h0Z"/>
  <path d="M75.97,230.26l1.88-12.67,4.7.7-1.88,12.67-4.7-.7h0Z"/>
  <path d="M83.43,177.41l-.09.25c-.96-.07-1.78-.14-2.5-.21-6-.52-6.1-.51-7.1,2.22l-3.02,8.22,13.09,4.81,2.23-6.07c.99-2.68-.53-2.91-3.67-5.57l.09-.25,10.82,3.98-.09.25c-4.2-.04-5.42-.82-6.4,1.87l-2.23,6.07,11.81,4.34,2.56-3.14.25.09-3.55,9.66-.25-.09.08-4.05-24.77-9.14-2.62,2.93-.25-.09,7.05-19.21,8.55,3.14h0Z"/>
  <path d="M114.72,161.68l.23.13-3.84,6.97-.23-.13.64-4.17-15.11,1.16-2.08,3.77,11.21,6.18,3-2.71.23.13-4.97,9.02-.23-.13.69-3.99-23.1-12.79-3.04,2.5-.23-.13,5.57-10.1c3.21-5.82,6.85-7.68,10.62-5.6,3.58,1.98,4.27,5.92,3.76,11.22l16.87-1.35h0ZM93.63,169.04l2.27-4.12c2.21-4.01,1.63-7.79-2.53-10.09-3.39-1.87-6.77-1.48-9.56,3.57l-2.21,4.01,12.02,6.63h0Z"/>
  <path d="M121.95,137.76l7.19,5.59-12.99,16.71-.21-.16,1.09-3.77-20.74-16.12-3.39,1.99-.21-.16,12.58-16.19,7.19,5.59-.16.21c-.89-.36-1.65-.67-2.32-.96-5.56-2.31-5.65-2.33-7.44-.04l-5.4,6.95,10.63,8.26,3.32-4.27c1.75-2.26.39-2.93-1.81-6.42l.16-.21,9.1,7.07-.16.21c-3.99-1.32-4.91-2.43-6.67-.17l-3.32,4.27,10.94,8.5,5.8-7.47c1.78-2.29,1.74-2.38-1.88-7.2-.45-.57-.94-1.23-1.51-2.01l.16-.21h0Z"/>
  <path d="M122.32,108.43l4.76-4.44,20.58,22.03-.19.18-30.54-7.42-.16.15,11.96,12.8c4.45,4.76,5.11,4.31,9.55,2.04l.21.23-4.79,4.48-18.83-20.16-2.42-.27-.18-.19,2.48-2.31,27.73,6.67.16-.15-10.57-11.32c-4.45-4.76-5.08-4.35-9.52-2.07l-.21-.23h0s0,0,0,0Z"/>
  <path d="M143.04,110.02c-6.48-9.91.2-18.55,1.58-19.49,4.11-2.8,7.65-2.6,9.75-1.32l1.14,5.51-.22.15c-1.78-4.8-6.62-4.65-10.3-2.14-1.96,1.34-6.81,5.86-1.35,14.28,4.73,7.26,12.4,10.4,18.37,6.34,2.26-1.54,3.09-3.44,3.93-5.18l.37.23c-1.34,3.04-3.61,6.82-4.55,7.46-5.86,3.99-13.99,1.43-18.72-5.83Z"/>
  <path d="M181.42,71.78l-2.91,2.82,11.22,24.04,4.03-.42.11.24-9.33,4.36-.11-.24,2.91-2.81-5.45-11.68-11.72,5.47,5.45,11.68,4.03-.42.11.24-9.33,4.35-.11-.24,2.91-2.82-11.22-24.04-4.03.42-.11-.24,9.33-4.36.11.24-2.91,2.81,5.43,11.64,11.72-5.47-5.43-11.64-4.03.42-.11-.24,9.33-4.36.11.24h0Z"/>
  <path d="M206.26,79.98l12.51-2.74,1.02,4.64-12.51,2.75-1.02-4.64Z"/>
  <path d="M261.12,67.55c-.22-.91-.54-1.75-.94-2.52-.4-.77-.92-1.44-1.56-2-.64-.56-1.39-1.01-2.25-1.33-.86-.32-1.86-.48-3.01-.5-1.67-.02-3.12.3-4.35.96-1.23.66-2.23,1.55-3,2.67s-1.36,2.4-1.74,3.83c-.38,1.43-.58,2.9-.6,4.39-.02,1.5.15,2.97.5,4.41.35,1.44.9,2.73,1.65,3.87.75,1.14,1.73,2.05,2.94,2.74,1.21.69,2.65,1.04,4.32,1.06,1.23.02,2.32-.18,3.26-.6.94-.41,1.76-.99,2.44-1.73.68-.74,1.22-1.61,1.62-2.6.39-.99.65-2.06.79-3.2l5.37.06c-.14,1.88-.56,3.59-1.27,5.13-.71,1.55-1.65,2.88-2.84,3.99-1.19,1.11-2.58,1.97-4.17,2.57-1.59.6-3.34.88-5.25.86-2.35-.03-4.45-.49-6.3-1.37-1.85-.89-3.42-2.09-4.69-3.6s-2.24-3.27-2.9-5.27c-.67-2-.98-4.13-.96-6.39.03-2.23.4-4.34,1.11-6.32s1.73-3.72,3.03-5.2c1.31-1.48,2.9-2.65,4.77-3.51s3.98-1.27,6.33-1.24c1.76.02,3.41.28,4.96.79,1.55.5,2.91,1.22,4.09,2.16,1.18.94,2.12,2.07,2.84,3.4.72,1.33,1.15,2.85,1.31,4.55l-5.5-.07h0s0,0,0,0Z"/>
  <path d="M277.28,58.96l14.7,3.03c3.39.7,5.78,1.95,7.18,3.77,1.39,1.81,1.82,4.03,1.28,6.64-.3,1.46-.77,2.64-1.4,3.51-.63.88-1.29,1.55-1.99,2.02-.7.47-1.35.78-1.96.92-.61.14-1.06.23-1.33.26l-.02.09c.45.15.91.4,1.4.74.48.34.9.81,1.26,1.4.36.6.6,1.33.74,2.19.14.87.08,1.9-.17,3.11-.37,1.81-.58,3.48-.61,5.02-.03,1.54.17,2.68.62,3.43l-5.77-1.19c-.27-.74-.35-1.52-.26-2.34.09-.82.22-1.6.37-2.35.29-1.41.45-2.64.49-3.69.04-1.06-.1-1.97-.42-2.74-.32-.77-.84-1.39-1.57-1.87-.73-.48-1.71-.85-2.94-1.1l-7.93-1.63-2.61,12.67-5.39-1.11,6.34-30.77h0ZM279.78,74.08l8.83,1.82c1.73.35,3.11.21,4.17-.42,1.06-.64,1.76-1.77,2.1-3.41.2-.98.22-1.8.06-2.48-.16-.68-.46-1.24-.89-1.69-.43-.45-.96-.8-1.58-1.04s-1.28-.44-1.97-.59l-8.75-1.8-1.98,9.61h0Z"/>
  <path d="M312.52,67.47l20.98,8.46-1.78,4.41-15.87-6.4-3.08,7.63,14.69,5.93-1.68,4.16-14.69-5.93-3.44,8.53,16.16,6.52-1.78,4.41-21.26-8.58,11.76-29.13s0,0,0,0Z"/>
  <path d="M349.79,85.15l4.96,3.11-6.43,33.05-4.99-3.13,1.92-8.61-10.62-6.66-6.91,5.48-4.81-3.01,26.9-20.22h0ZM338.1,100.15l8.13,5.09,3.19-13.95-.11-.07-11.2,8.92h0Z"/>
  <path d="M365.26,95.09l19.35,16.51-3.08,3.61-7.6-6.48-17.31,20.29-4.18-3.57,17.3-20.29-7.56-6.45,3.08-3.61h0Z"/>
  <path d="M389.55,117.16l3.73,4.04-23.06,21.34-3.74-4.04,23.06-21.34Z"/>
  <path d="M398.27,126.22l3.35,4.64-15.54,20.94.05.07,24.87-8.03,3.27,4.53-31.75,9.69-3.58-4.96,19.34-26.88h0Z"/>
  <path d="M418.25,155.52l9.97,20.3-4.27,2.1-7.55-15.36-7.39,3.63,6.98,14.22-4.03,1.98-6.98-14.22-8.25,4.05,7.68,15.64-4.27,2.1-10.11-20.58,28.2-13.85h0Z"/>
  <path d="M418.98,201.99l3.02,12.44-4.62,1.12-3.02-12.44,4.62-1.12Z"/>
  <path d="M438.74,235.98l1.07-3.91.26-.02.67,10.27-.26.02-1.57-3.73-26.47,1.74-1.07,3.91-.26.02-.67-10.27.26-.02,1.57,3.73,26.47-1.74h0Z"/>
  <path d="M440.34,263.7l-.38,6.5-30.09-1.74.02-.26,27.22-15.71v-.22s-17.47-1.01-17.47-1.01c-6.5-.38-6.68.41-8.32,5.12l-.31-.02.38-6.54,27.54,1.59,1.94-1.47h.26s-.2,3.4-.2,3.4l-24.67,14.31v.22s15.45.89,15.45.89c6.5.38,6.68-.36,8.31-5.07l.31.02h0,0Z"/>
  <path d="M419.4,300.26c-6.87-1.55-13.98-7.22-11.32-18.98l1.74-7.73.26.06.61,3.88,25.62,5.79,2.22-3.24.26.06-2.04,9.01c-2.02,8.93-8.13,13.23-17.36,11.15h0ZM408.9,281.24c-2.02,9.33,2.06,14.27,10.77,16.23,8.2,1.85,14.56-.77,16.57-9.66l.41-1.8-27.43-6.19-.32,1.42h0Z"/>
  <path d="M404.66,321.63l-8.47-3.35,7.79-19.67.25.1v3.93s24.42,9.67,24.42,9.67l2.7-2.86.25.1-7.55,19.06-8.47-3.35.1-.25c.96.1,1.77.18,2.49.28,5.98.67,6.08.66,7.15-2.04l3.24-8.18-12.52-4.96-1.99,5.03c-1.05,2.66.45,2.92,3.53,5.66l-.1.24-10.72-4.24.1-.24c4.2.15,5.4.95,6.45-1.71l1.99-5.03-12.88-5.1-3.48,8.8c-1.07,2.7-1,2.77,3.81,6.38.59.42,1.24.92,2.01,1.51l-.1.24h0,0Z"/>
  <path d="M402.07,333.74l-9.46-5.53-3.07,2.64-.23-.13,5.2-8.89.23.13-.79,3.97,22.77,13.36,3.1-2.42.23.13-5.73,9.8c-2.93,5.01-7.33,7.39-11.85,4.74-3.65-2.13-6.45-7.44-2.08-14.92l1.69-2.89ZM416.2,342l-13.44-7.86-1.35,2.32c-3.35,5.73-2.55,9.77,1.89,12.37,3.91,2.29,8.2,1.23,11.13-3.79l1.77-3.04h0Z"/>
  <path d="M376.26,364.28l-7.08-5.73,13.32-16.45.2.17-1.17,3.75,20.42,16.53,3.43-1.93.2.17-12.9,15.94-7.08-5.73.17-.2c.89.38,1.64.7,2.3,1.01,5.51,2.42,5.61,2.44,7.44.19l5.54-6.84-10.47-8.47-3.4,4.21c-1.8,2.22-.44,2.92,1.68,6.46l-.17.2-8.96-7.25.17-.21c3.96,1.4,4.86,2.52,6.67.3l3.4-4.21-10.77-8.72-5.95,7.35c-1.83,2.26-1.79,2.35,1.73,7.23.44.58.91,1.25,1.47,2.04l-.17.2h0Z"/>
  <path d="M375.34,393.57l-4.84,4.35-20.14-22.42.2-.18,30.38,8.01.16-.15-11.7-13.02c-4.35-4.84-5.03-4.41-9.51-2.22l-.2-.23,4.88-4.38,18.44,20.52,2.41.32.18.2-2.52,2.26-27.59-7.21-.16.15,10.35,11.52c4.35,4.84,4.99,4.44,9.48,2.25l.2.23h0Z"/>
  <path d="M334.7,404.79c-3.78-5.94-4.83-14.97,5.33-21.44l6.68-4.25.14.22-2.3,3.19,14.11,22.16,3.86-.74.14.22-7.79,4.96c-7.72,4.92-15.09,3.66-20.17-4.32h0s0,0,0,0ZM340.65,383.9c-8.01,5.2-8.59,11.57-3.8,19.11,4.51,7.09,10.88,9.71,18.56,4.82l1.56-.99-15.1-23.72-1.23.78h0Z"/>
  <path d="M325.71,424.81l-20.6-23.12-.11-.24,6.45-2.82.11.24-2.88,2.85,6.17,6.86,9.84-4.31-.13-1.72c-.49-6.7-.84-7.18-5.62-6.91l-.11-.24,5.97-2.61.11.24,2.06,28.74,1.42,1.59.11.24-2.78,1.22h0ZM324.76,405.1l-9.35,4.1,10.33,11.52.16-.07-1.14-15.55h0Z"/>
  <path d="M296.51,434.68l-6.29,1.67-7.74-29.13.26-.07,23.41,20.96.21-.06-4.5-16.92c-1.67-6.29-2.47-6.22-7.46-6.3l-.08-.3,6.34-1.68,7.08,26.66,2.01,1.38.07.26-3.27.87-21.29-18.97-.21.06,3.98,14.97c1.67,6.29,2.43,6.23,7.41,6.32l.08.3h0Z"/>
  <path d="M259.82,431.27l.26-.03c3.06,7.77,2.73,8.07,6.32,7.68l3.11-.34-2.95-27.16-3.95-.9-.03-.26,10.23-1.11.03.26-3.66,1.73,2.95,27.16,3.11-.34c3.59-.39,3.21-.61,4.53-8.86l.26-.03.98,9.05-20.21,2.19-.98-9.05h0s0,0,0,0Z"/>
  <path d="M240.38,424.83l-12.75-1.18.44-4.73,12.75,1.18-.44,4.73Z"/>
</svg>