<?xml version="1.0" encoding="UTF-8"?>
<svg id="Calque_1" xmlns="http://www.w3.org/2000/svg" version="1.1" viewBox="0 0 500 500">
  <!-- Generator: Adobe Illustrator 29.6.1, SVG Export Plug-In . SVG Version: 2.1.1 Build 9)  -->
  <defs>
    <style>
      .st0 {
        fill: #fa6218;
      }

      .st1 {
        display: none;
      }
    </style>
  </defs>
  <g>
    <circle class="st1" cx="250" cy="250.3" r="241"/>
    <circle class="st0" cx="250" cy="250.3" r="229"/>
    <g>
      <path d="M206.161,437.795l-5.29-1.504,7.296-25.646-15.363-4.371,1.3-4.57,20.653,5.875-8.597,30.217h0Z"/>
      <path d="M171.152,402.336c.574-1.255,1.235-2.42,1.985-3.496.751-1.076,1.666-1.932,2.746-2.566,1.081-.635,2.369-.949,3.866-.941,1.497.007,3.272.48,5.326,1.418,1.521.695,2.708,1.521,3.561,2.476.854.954,1.442,1.997,1.763,3.128.322,1.131.386,2.33.194,3.597s-.587,2.554-1.185,3.861l-.695,1.521-5.002-2.287.678-1.48c.744-1.627,1.046-3.014.908-4.156-.137-1.145-.967-2.063-2.488-2.759-.801-.366-1.516-.548-2.146-.546-.63.002-1.205.167-1.725.494-.52.326-.992.812-1.417,1.457-.423.645-.837,1.406-1.239,2.287l-8.983,19.648-5.002-2.287,8.855-19.367v-.002Z"/>
      <path d="M149.625,389.41c.746-.943,1.222-1.876,1.426-2.799.205-.922.188-1.822-.051-2.703-.238-.881-.654-1.715-1.249-2.501-.592-.786-1.326-1.525-2.201-2.217-.943-.745-1.835-1.272-2.676-1.582-.84-.309-1.604-.454-2.292-.437-.687.018-1.299.18-1.838.482-.539.303-.99.684-1.354,1.145-.746.943-1.083,1.809-1.012,2.594s.288,1.47.647,2.055c.621,1.013,1.398,2.123,2.333,3.329.935,1.206,2.072,2.712,3.412,4.519.84,1.113,1.434,2.17,1.781,3.174s.509,1.945.488,2.825c-.023.88-.193,1.698-.512,2.456s-.732,1.459-1.242,2.104c-.982,1.242-2.09,2.113-3.327,2.613s-2.517.713-3.842.639c-1.323-.074-2.641-.396-3.95-.963-1.309-.567-2.516-1.287-3.621-2.16-1.289-1.019-2.371-2.146-3.246-3.379-.875-1.234-1.481-2.526-1.816-3.875-.335-1.351-.37-2.714-.103-4.092.267-1.379.909-2.713,1.927-4l4.315,3.41c-1.14,1.678-1.486,3.228-1.038,4.647s1.42,2.722,2.916,3.903c.507.4,1.065.758,1.676,1.072.612.314,1.232.523,1.859.628.628.104,1.25.062,1.865-.124.616-.188,1.168-.592,1.66-1.213.691-.875.962-1.772.812-2.695-.149-.922-.562-1.855-1.237-2.801-.074-.095-.359-.479-.855-1.152-.496-.672-1.054-1.421-1.673-2.246-.619-.826-1.225-1.633-1.819-2.419-.592-.786-1.014-1.354-1.264-1.7-.605-.891-1.034-1.789-1.288-2.699-.252-.91-.357-1.808-.314-2.689.043-.882.222-1.723.535-2.521.314-.799.726-1.521,1.234-2.165,1.092-1.381,2.306-2.338,3.642-2.87,1.337-.532,2.711-.745,4.123-.639,1.411.105,2.818.479,4.219,1.119,1.401.64,2.711,1.441,3.931,2.405,1.404,1.11,2.591,2.328,3.561,3.655.97,1.328,1.634,2.711,1.99,4.152.357,1.441.371,2.938.041,4.49-.33,1.553-1.083,3.098-2.261,4.635l-4.314-3.41h.002Z"/>
      <path d="M115.92,388.732l-17.076-18.847,3.522-3.19,6.705,7.4,19.761-17.901,3.692,4.075-19.759,17.903,6.676,7.368-3.521,3.191h0Z"/>
      <path d="M93.667,363.074l-2.916-4.664,15.521-9.703c.896-.56,1.777-1.17,2.642-1.832.866-.663,1.538-1.43,2.015-2.299s.692-1.867.643-2.996c-.048-1.129-.546-2.451-1.496-3.969-.949-1.518-1.919-2.545-2.913-3.083-.993-.538-1.985-.782-2.976-.733-.989.047-1.972.316-2.948.804-.974.489-1.91,1.013-2.804,1.573l-15.521,9.703-2.915-4.664,17.05-10.659c1.716-1.073,3.372-1.745,4.967-2.016s3.121-.195,4.577.226c1.458.422,2.816,1.171,4.079,2.25,1.264,1.078,2.408,2.438,3.434,4.08s1.747,3.267,2.165,4.873c.417,1.607.496,3.159.236,4.653-.259,1.493-.86,2.899-1.802,4.214-.941,1.316-2.271,2.51-3.987,3.582l-17.05,10.66h0Z"/>
      <path d="M74.68,330.422l-4.625-12.176c-.854-2.248-1.209-4.342-1.068-6.278.144-1.938.682-3.679,1.615-5.227.935-1.546,2.197-2.912,3.786-4.097,1.59-1.186,3.399-2.162,5.428-2.934,2.03-.771,4.032-1.241,6.007-1.41,1.975-.171,3.826.013,5.551.55,1.726.536,3.285,1.481,4.677,2.835,1.394,1.354,2.517,3.155,3.371,5.403l4.625,12.175-29.368,11.158h0ZM97.899,315.717l-1.922-5.06c-.76-2.001-1.65-3.538-2.669-4.61-1.02-1.072-2.14-1.791-3.362-2.159-1.221-.366-2.52-.438-3.894-.215-1.375.224-2.802.616-4.283,1.18-1.48.563-2.809,1.216-3.985,1.962-1.176.744-2.099,1.66-2.77,2.746-.669,1.086-1.03,2.368-1.08,3.846-.051,1.479.305,3.219,1.065,5.221l1.922,5.059,20.977-7.969h0Z"/>
      <path d="M63.238,296.322l-1.235-5.359,30.615-7.052,1.235,5.36-30.614,7.051h0Z"/>
      <path d="M57.655,266.877c-.2-2.338.058-4.472.776-6.403.718-1.931,1.766-3.603,3.147-5.017,1.38-1.414,3.035-2.55,4.963-3.406,1.929-.857,4.004-1.382,6.225-1.572,2.251-.193,4.399-.031,6.445.485,2.047.517,3.87,1.354,5.471,2.512,1.601,1.159,2.913,2.628,3.934,4.41s1.632,3.843,1.833,6.18c.2,2.339-.052,4.473-.754,6.401-.703,1.931-1.745,3.603-3.125,5.016-1.38,1.414-3.034,2.549-4.963,3.406-1.928.858-4.017,1.383-6.269,1.576-2.22.19-4.354.027-6.401-.489-2.046-.516-3.87-1.354-5.471-2.512-1.6-1.157-2.919-2.628-3.956-4.409-1.036-1.779-1.653-3.838-1.854-6.178h-.001ZM62.126,266.494c.143,1.666.603,3.076,1.378,4.231.777,1.155,1.76,2.065,2.951,2.728,1.19.664,2.517,1.117,3.98,1.359,1.464.243,2.94.3,4.431.172,1.49-.128,2.937-.436,4.336-.924,1.401-.488,2.632-1.16,3.691-2.017,1.061-.856,1.875-1.92,2.442-3.19.569-1.27.781-2.738.639-4.404-.144-1.666-.603-3.076-1.379-4.232-.776-1.154-1.759-2.064-2.95-2.728-1.19-.663-2.517-1.115-3.98-1.358-1.463-.243-2.94-.301-4.431-.172-1.491.127-2.936.436-4.336.924-1.401.488-2.631,1.16-3.692,2.016-1.06.857-1.874,1.921-2.442,3.191s-.781,2.738-.639,4.404h0Z"/>
      <path d="M75.731,230.805l1.878-12.666,4.701.697-1.878,12.666-4.7-.697h0Z"/>
      <path d="M83.194,177.955l-.09.248c-.958-.07-1.778-.137-2.499-.215-5.999-.516-6.096-.505-7.098,2.221l-3.019,8.221,13.093,4.809,2.23-6.072c.986-2.684-.525-2.911-3.674-5.567l.091-.248,10.822,3.976-.091.247c-4.202-.044-5.418-.818-6.404,1.866l-2.23,6.072,11.813,4.338,2.559-3.139.248.092-3.55,9.664-.248-.091.081-4.048-24.766-9.144-2.622,2.927-.248-.09,7.054-19.207,8.549,3.141h0Z"/>
      <path d="M114.484,162.231l.23.127-3.844,6.974-.232-.127.641-4.169-15.111,1.164-2.083,3.774,11.212,6.184,3.004-2.715.231.127-4.971,9.017-.231-.128.693-3.988-23.096-12.786-3.036,2.497-.23-.127,5.565-10.096c3.208-5.817,6.848-7.68,10.624-5.598,3.583,1.976,4.271,5.922,3.763,11.219l16.872-1.349h0ZM93.392,169.594l2.273-4.123c2.209-4.008,1.633-7.791-2.528-10.086-3.391-1.869-6.774-1.475-9.558,3.573l-2.209,4.007,12.021,6.629h0Z"/>
      <path d="M121.713,138.307l7.192,5.589-12.985,16.71-.208-.161,1.094-3.774-20.741-16.117-3.387,1.994-.208-.162,12.58-16.189,7.192,5.587-.162.209c-.892-.358-1.652-.671-2.316-.964-5.559-2.312-5.654-2.332-7.436-.039l-5.399,6.949,10.631,8.26,3.32-4.273c1.755-2.258.385-2.933-1.809-6.42l.163-.209,9.102,7.073-.162.208c-3.99-1.317-4.913-2.425-6.668-.166l-3.32,4.273,10.944,8.504,5.804-7.471c1.782-2.293,1.739-2.381-1.875-7.195-.448-.571-.938-1.23-1.506-2.006l.162-.209h-.002Z"/>
      <path d="M122.083,108.982l4.759-4.445,20.576,22.025-.192.18-30.538-7.42-.161.15,11.956,12.797c4.445,4.758,5.114,4.314,9.55,2.037l.211.225-4.792,4.476-18.834-20.16-2.419-.269-.18-.193,2.476-2.312,27.729,6.67.161-.149-10.573-11.317c-4.447-4.759-5.083-4.345-9.519-2.067l-.21-.226v-.002Z"/>
      <path d="M142.802,110.564c-6.48-9.907.197-18.551,1.579-19.492,4.11-2.799,7.652-2.602,9.751-1.316l1.14,5.506-.218.148c-1.78-4.804-6.623-4.646-10.297-2.145-1.964,1.336-6.813,5.863-1.35,14.279,4.733,7.264,12.403,10.399,18.368,6.338,2.256-1.535,3.091-3.436,3.929-5.176l.368.229c-1.338,3.039-3.608,6.82-4.553,7.464-5.856,3.987-13.985,1.429-18.717-5.835Z"/>
      <path d="M181.188,72.333l-2.91,2.815,11.223,24.039,4.027-.422.111.238-9.33,4.355-.111-.24,2.909-2.814-5.453-11.682-11.721,5.473,5.453,11.682,4.027-.424.112.24-9.329,4.354-.112-.238,2.911-2.815-11.224-24.04-4.026.424-.112-.24,9.33-4.355.112.24-2.91,2.814,5.435,11.641,11.721-5.471-5.435-11.642-4.027.423-.112-.238,9.329-4.355.112.239h0Z"/>
      <path d="M206.03,80.525l12.506-2.744,1.018,4.642-12.506,2.745-1.018-4.643Z"/>
      <path d="M260.889,68.101c-.225-.911-.537-1.751-.938-2.52-.402-.768-.922-1.435-1.56-1.999-.64-.565-1.39-1.007-2.251-1.326-.861-.318-1.863-.484-3.008-.498-1.672-.02-3.121.3-4.346.961-1.226.658-2.226,1.549-3.002,2.669s-1.357,2.397-1.741,3.829c-.384,1.433-.584,2.896-.603,4.393-.019,1.496.147,2.966.496,4.406.349,1.442.897,2.732,1.648,3.871.748,1.138,1.728,2.052,2.936,2.741,1.209.69,2.65,1.044,4.323,1.063,1.23.016,2.318-.184,3.263-.598.945-.414,1.757-.99,2.44-1.73.685-.739,1.223-1.605,1.617-2.598.393-.992.654-2.062.785-3.203l5.368.064c-.14,1.877-.564,3.587-1.272,5.133-.707,1.547-1.655,2.878-2.842,3.992-1.187,1.115-2.576,1.971-4.168,2.567-1.591.597-3.34.884-5.246.86-2.348-.028-4.447-.486-6.298-1.374-1.853-.888-3.416-2.087-4.688-3.599s-2.241-3.269-2.905-5.271c-.666-2.004-.984-4.133-.957-6.393.026-2.229.397-4.336,1.11-6.322s1.725-3.721,3.033-5.199c1.309-1.481,2.9-2.65,4.773-3.508s3.983-1.271,6.33-1.243c1.759.021,3.414.284,4.963.786,1.548.503,2.91,1.223,4.088,2.162,1.176.938,2.123,2.072,2.841,3.399.716,1.329,1.153,2.847,1.309,4.549l-5.499-.066v.002Z"/>
      <path d="M277.041,59.51l14.696,3.026c3.39.698,5.781,1.954,7.176,3.769,1.394,1.814,1.82,4.029,1.282,6.644-.303,1.464-.768,2.635-1.396,3.508-.629.875-1.293,1.547-1.988,2.017-.695.471-1.351.778-1.964.922-.612.143-1.058.23-1.334.264l-.019.086c.447.152.914.398,1.398.737.484.341.904.808,1.26,1.405.356.598.603,1.33.738,2.195.137.867.08,1.904-.168,3.111-.373,1.809-.576,3.482-.607,5.018-.031,1.537.174,2.68.62,3.43l-5.775-1.189c-.267-.744-.353-1.524-.258-2.344.093-.819.217-1.603.37-2.35.291-1.408.455-2.639.492-3.695.037-1.055-.104-1.968-.424-2.738-.321-.769-.844-1.393-1.569-1.872-.726-.479-1.706-.845-2.94-1.1l-7.93-1.633-2.608,12.67-5.388-1.109,6.336-30.771h0ZM279.545,74.625l8.834,1.82c1.725.354,3.115.214,4.174-.422,1.061-.635,1.758-1.771,2.096-3.408.201-.977.221-1.803.062-2.48-.161-.677-.457-1.24-.889-1.688-.433-.449-.959-.797-1.582-1.045s-1.279-.443-1.969-.586l-8.748-1.801-1.979,9.609h0Z"/>
      <path d="M312.291,68.021l20.974,8.462-1.778,4.408-15.873-6.405-3.078,7.631,14.689,5.927-1.68,4.161-14.689-5.927-3.441,8.528,16.158,6.52-1.777,4.406-21.26-8.578,11.756-29.133h0Z"/>
      <path d="M349.553,85.697l4.958,3.108-6.433,33.046-4.995-3.132,1.919-8.612-10.625-6.66-6.915,5.481-4.81-3.015,26.9-20.217h.001ZM337.863,100.701l8.129,5.094,3.185-13.946-.112-.069-11.201,8.922h-.001Z"/>
      <path d="M365.025,95.641l19.348,16.506-3.084,3.615-7.599-6.482-17.306,20.285-4.185-3.569,17.306-20.286-7.564-6.453,3.084-3.615h0Z"/>
      <path d="M389.319,117.711l3.735,4.035-23.055,21.342-3.736-4.036,23.056-21.341Z"/>
      <path d="M398.031,126.771l3.349,4.637-15.542,20.941.052.07,24.868-8.027,3.271,4.529-31.754,9.691-3.58-4.959,19.336-26.883h0Z"/>
      <path d="M418.017,156.069l9.971,20.3-4.265,2.095-7.547-15.362-7.385,3.627,6.984,14.217-4.029,1.979-6.982-14.218-8.255,4.055,7.682,15.64-4.265,2.095-10.107-20.576,28.198-13.851h0Z"/>
      <path d="M418.75,202.535l3.024,12.442-4.618,1.122-3.023-12.441,4.617-1.123h0Z"/>
      <path d="M438.51,236.533l1.066-3.906.264-.018.674,10.273-.264.018-1.568-3.732-26.473,1.736-1.066,3.906-.264.018-.674-10.273.264-.018,1.568,3.732,26.473-1.736Z"/>
      <path d="M440.102,264.248l-.377,6.5-30.088-1.736.016-.264,27.217-15.705.012-.219-17.48-1.01c-6.502-.375-6.679.407-8.316,5.117l-.309-.018.379-6.545,27.54,1.589,1.937-1.474.264.015-.195,3.382-24.668,14.31-.014.22,15.462.893c6.501.375,6.676-.364,8.313-5.072l.309.018h-.002Z"/>
      <path d="M419.166,300.811c-6.867-1.551-13.979-7.217-11.324-18.977l1.744-7.725.258.058.612,3.882,25.624,5.785,2.221-3.244.257.059-2.034,9.014c-2.016,8.928-8.129,13.23-17.357,11.148h0ZM408.663,281.794c-2.017,9.333,2.057,14.268,10.771,16.235,8.197,1.85,14.564-.773,16.568-9.658l.408-1.803-27.427-6.19-.32,1.416h0Z"/>
      <path d="M404.423,322.176l-8.467-3.353,7.79-19.675.246.098.006,3.93,24.418,9.668,2.694-2.86.246.097-7.548,19.062-8.467-3.353.098-.246c.955.096,1.773.183,2.492.277,5.982.666,6.08.657,7.148-2.043l3.24-8.18-12.518-4.957-1.991,5.032c-1.053,2.658.451,2.923,3.532,5.657l-.097.244-10.717-4.242.097-.245c4.199.149,5.396.953,6.448-1.706l1.991-5.031-12.883-5.102-3.482,8.795c-1.069,2.699-1.004,2.773,3.812,6.383.59.424,1.244.918,2.007,1.505l-.098.245h.003Z"/>
      <path d="M401.836,334.289l-9.457-5.529-3.07,2.639-.228-.134,5.195-8.887.229.133-.793,3.971,22.767,13.36,3.095-2.419.229.133-5.729,9.799c-2.932,5.014-7.325,7.388-11.846,4.745-3.646-2.133-6.452-7.443-2.079-14.924l1.688-2.887h0ZM415.965,342.55l-13.445-7.86-1.354,2.316c-3.354,5.734-2.553,9.77,1.891,12.367,3.912,2.288,8.201,1.228,11.132-3.785l1.776-3.038h0Z"/>
      <path d="M376.024,364.832l-7.08-5.73,13.317-16.452.205.167-1.17,3.752,20.42,16.529,3.427-1.926.205.166-12.902,15.938-7.079-5.731.166-.205c.884.377,1.638.704,2.297,1.01,5.511,2.424,5.607,2.444,7.435.188l5.537-6.841-10.466-8.472-3.406,4.207c-1.799,2.223-.443,2.924,1.682,6.456l-.167.205-8.961-7.254.167-.206c3.964,1.397,4.864,2.523,6.664.301l3.406-4.207-10.775-8.721-5.952,7.353c-1.827,2.258-1.786,2.347,1.731,7.233.438.579.914,1.249,1.467,2.035l-.167.205h0Z"/>
      <path d="M375.101,394.118l-4.843,4.352-20.141-22.416.197-.177,30.381,8.012.163-.147-11.702-13.024c-4.352-4.844-5.028-4.412-9.508-2.223l-.205-.229,4.877-4.381,18.435,20.519,2.413.315.176.197-2.52,2.264-27.59-7.207-.163.146,10.35,11.519c4.351,4.844,4.995,4.442,9.475,2.252l.205.229h0Z"/>
      <path d="M334.469,405.34c-3.78-5.938-4.835-14.969,5.335-21.443l6.681-4.253.142.223-2.3,3.187,14.105,22.158,3.861-.736.141.223-7.794,4.962c-7.72,4.915-15.091,3.661-20.171-4.319v-.002ZM340.414,384.447c-8.006,5.201-8.592,11.572-3.796,19.107,4.513,7.089,10.878,9.713,18.562,4.822l1.559-.992-15.099-23.718-1.226.78h0Z"/>
      <path d="M325.475,425.363l-20.596-23.119-.106-.242,6.449-2.824.106.241-2.885,2.849,6.174,6.857,9.836-4.309-.13-1.72c-.485-6.705-.837-7.177-5.618-6.907l-.106-.242,5.966-2.613.105.242,2.063,28.737,1.417,1.589.105.242-2.781,1.219h.001ZM324.528,405.648l-9.352,4.096,10.329,11.521.162-.07-1.14-15.547h.001Z"/>
      <path d="M296.277,435.232l-6.293,1.672-7.738-29.128.255-.067,23.413,20.957.212-.057-4.495-16.924c-1.673-6.293-2.473-6.217-7.457-6.305l-.079-.297,6.336-1.684,7.083,26.661,2.005,1.38.068.255-3.274.87-21.292-18.972-.212.056,3.977,14.969c1.672,6.293,2.428,6.229,7.413,6.315l.079.298h-.001Z"/>
      <path d="M259.582,431.813l.263-.029c3.056,7.769,2.734,8.068,6.321,7.679l3.105-.337-2.948-27.163-3.948-.898-.027-.264,10.234-1.11.029.263-3.664,1.725,2.949,27.164,3.105-.338c3.586-.389,3.208-.613,4.526-8.855l.262-.028.983,9.054-20.209,2.193-.982-9.054v-.002Z"/>
      <path d="M240.143,425.375l-12.75-1.18.438-4.732,12.75,1.181-.438,4.731Z"/>
    </g>
  </g>
  <g>
    <path d="M163.676,199.19s14.964-29.215,34.203-27.552c3.8.356,11.638.119,25.414,15.557-5.344-2.256-30.224-18.853-59.617,11.995Z"/>
    <path d="M183.935,303.886c-.008-.02-.016-.036-.024-.056.012.101.02.201.024.302.004.068.004.133.004.201.004-.141.004-.294-.004-.446h0ZM202.596,266.577c-11.709,0-21.198,11.327-21.198,25.295,0,2.525.31,4.958.889,7.258.036.137.068.273.105.41,0,0,0,.004.004.008.245.925.535,1.829.86,2.702l.294-.161.989-.543,38.535-8.725.692.141.008.004c.004-.064.004-.125.004-.189.012-.302.016-.603.016-.905,0-13.968-9.489-25.295-21.198-25.295h0ZM198.096,286.444c-4.966,0-8.995-3.671-8.995-8.194s4.029-8.194,8.995-8.194,8.99,3.667,8.99,8.194-4.025,8.194-8.99,8.194ZM183.935,303.886c-.008-.02-.016-.036-.024-.056.012.101.02.201.024.302.004.068.004.133.004.201.004-.141.004-.294-.004-.446h0ZM202.596,266.577c-11.709,0-21.198,11.327-21.198,25.295,0,2.525.31,4.958.889,7.258.036.137.068.273.105.41,0,0,0,.004.004.008.245.925.535,1.829.86,2.702l.294-.161.989-.543,38.535-8.725.692.141.008.004c.004-.064.004-.125.004-.189.012-.302.016-.603.016-.905,0-13.968-9.489-25.295-21.198-25.295h0ZM198.096,286.444c-4.966,0-8.995-3.671-8.995-8.194s4.029-8.194,8.995-8.194,8.99,3.667,8.99,8.194-4.025,8.194-8.99,8.194ZM183.935,303.886c-.008-.02-.016-.036-.024-.056.012.101.02.201.024.302.004.068.004.133.004.201.004-.141.004-.294-.004-.446h0ZM202.596,266.577c-11.709,0-21.198,11.327-21.198,25.295,0,2.525.31,4.958.889,7.258.036.137.068.273.105.41,0,0,0,.004.004.008.245.925.535,1.829.86,2.702l.294-.161.989-.543,38.535-8.725.692.141.008.004c.004-.064.004-.125.004-.189.012-.302.016-.603.016-.905,0-13.968-9.489-25.295-21.198-25.295h0ZM198.096,286.444c-4.966,0-8.995-3.671-8.995-8.194s4.029-8.194,8.995-8.194,8.99,3.667,8.99,8.194-4.025,8.194-8.99,8.194ZM183.911,303.83c.012.101.02.201.024.302.004.068.004.133.004.201.004-.141.004-.294-.004-.446-.008-.02-.016-.036-.024-.056h0ZM242.494,265.548c-.651-34.511-20.007-62.129-43.228-61.691-23.224.438-41.523,28.769-40.871,63.279.655,34.51,20.007,62.133,43.232,61.691,23.224-.438,41.519-28.769,40.867-63.279ZM189.102,278.25c0-4.527,4.029-8.194,8.995-8.194s8.99,3.667,8.99,8.194-4.025,8.194-8.99,8.194-8.995-3.671-8.995-8.194ZM228.224,292.893s0,.008-.004.016c-.117.302-.233.599-.354.897-.056.145-.113.285-.173.426l-.004.004c-2.762,6.731-6.465,12.34-10.824,16.345,3.928-4.274,6.51-10.285,6.88-17.02v-.004c.012-.197.02-.394.028-.591.004-.064.004-.125.004-.189.012-.302.016-.603.016-.905,0-13.968-9.489-25.295-21.198-25.295s-21.198,11.327-21.198,25.295c0,2.525.31,4.958.889,7.258.036.137.068.273.105.41,0,0,0,.004.004.008.245.925.535,1.829.86,2.702.205.539.422,1.066.655,1.58.012.101.02.201.024.302.004.068.004.133.004.201.004-.141.004-.294-.004-.446,3.583,7.909,10.595,13.281,18.661,13.281.414,0,.824-.016,1.23-.044-.712.105-1.431.169-2.159.197-8.279.318-16.043-4.298-22.203-12.211-.141-.181-.281-.366-.422-.551-.052-.072-.109-.141-.161-.213-.016-.02-.032-.04-.044-.06-7.286-9.791-12.191-24.274-12.814-40.582-1.166-30.325,12.907-55.487,31.431-56.195,18.524-.712,34.482,23.293,35.644,53.617.45,11.737-1.383,22.697-4.873,31.768h0ZM183.935,303.886c-.008-.02-.016-.036-.024-.056.012.101.02.201.024.302.004.068.004.133.004.201.004-.141.004-.294-.004-.446h0ZM202.596,266.577c-11.709,0-21.198,11.327-21.198,25.295,0,2.525.31,4.958.889,7.258.036.137.068.273.105.41,0,0,0,.004.004.008.245.925.535,1.829.86,2.702l.294-.161.989-.543,38.535-8.725.692.141.008.004c.004-.064.004-.125.004-.189.012-.302.016-.603.016-.905,0-13.968-9.489-25.295-21.198-25.295h0ZM198.096,286.444c-4.966,0-8.995-3.671-8.995-8.194s4.029-8.194,8.995-8.194,8.99,3.667,8.99,8.194-4.025,8.194-8.99,8.194ZM183.935,303.886c-.008-.02-.016-.036-.024-.056.012.101.02.201.024.302.004.068.004.133.004.201.004-.141.004-.294-.004-.446h0ZM202.596,266.577c-11.709,0-21.198,11.327-21.198,25.295,0,2.525.31,4.958.889,7.258.036.137.068.273.105.41,0,0,0,.004.004.008.245.925.535,1.829.86,2.702l.294-.161.989-.543,38.535-8.725.692.141.008.004c.004-.064.004-.125.004-.189.012-.302.016-.603.016-.905,0-13.968-9.489-25.295-21.198-25.295h0ZM198.096,286.444c-4.966,0-8.995-3.671-8.995-8.194s4.029-8.194,8.995-8.194,8.99,3.667,8.99,8.194-4.025,8.194-8.99,8.194ZM183.935,303.886c-.008-.02-.016-.036-.024-.056.012.101.02.201.024.302.004.068.004.133.004.201.004-.141.004-.294-.004-.446h0ZM202.596,266.577c-11.709,0-21.198,11.327-21.198,25.295,0,2.525.31,4.958.889,7.258.036.137.068.273.105.41,0,0,0,.004.004.008.245.925.535,1.829.86,2.702l.294-.161.989-.543,38.535-8.725.692.141.008.004c.004-.064.004-.125.004-.189.012-.302.016-.603.016-.905,0-13.968-9.489-25.295-21.198-25.295h0ZM198.096,286.444c-4.966,0-8.995-3.671-8.995-8.194s4.029-8.194,8.995-8.194,8.99,3.667,8.99,8.194-4.025,8.194-8.99,8.194Z"/>
    <path d="M202.596,266.577c-11.709,0-21.198,11.327-21.198,25.295,0,2.525.31,4.958.889,7.258.036.137.068.273.105.41,0,0,0,.004.004.008.245.925.535,1.829.86,2.702.205.539.422,1.066.655,1.58.012.101.02.201.024.302.004.068.004.133.004.201.004-.141.004-.294-.004-.446,3.583,7.909,10.595,13.281,18.661,13.281.414,0,.824-.016,1.23-.044,4.737-.676,9.143-2.967,13.023-6.526.004-.004.008-.012.016-.016,3.928-4.274,6.51-10.285,6.88-17.02v-.004c.012-.197.02-.394.028-.591.004-.064.004-.125.004-.189.012-.302.016-.603.016-.905,0-13.968-9.489-25.295-21.198-25.295h0ZM198.096,270.055c4.966,0,8.99,3.667,8.99,8.194s-4.025,8.194-8.99,8.194-8.995-3.671-8.995-8.194,4.029-8.194,8.995-8.194Z"/>
    <path d="M202.596,266.577c-11.709,0-21.198,11.327-21.198,25.295,0,2.525.31,4.958.889,7.258.036.137.068.273.105.41,0,0,0,.004.004.008.245.925.535,1.829.86,2.702.205.539.422,1.066.655,1.58.008.02.016.036.024.056,3.583,7.909,10.595,13.281,18.661,13.281.414,0,.824-.016,1.23-.044,5.006-.338,9.541-2.75,13.023-6.526.004-.004.008-.012.016-.016,3.928-4.274,6.51-10.285,6.88-17.02v-.004c.012-.197.02-.394.028-.591.004-.064.004-.125.004-.189.012-.302.016-.603.016-.905,0-13.968-9.489-25.295-21.198-25.295h0ZM198.096,270.055c4.966,0,8.99,3.667,8.99,8.194s-4.025,8.194-8.99,8.194-8.995-3.671-8.995-8.194,4.029-8.194,8.995-8.194Z"/>
    <path d="M179.464,305.109c-.149-.173-.294-.354-.43-.547-.052-.072-.105-.145-.153-.217.052.072.109.141.161.213.141.185.281.37.422.551Z"/>
    <path d="M183.911,303.83c-.233-.515-.45-1.041-.655-1.58-.326-.873-.615-1.777-.86-2.702.201.33.394.68.567,1.049.241.503.438,1.005.587,1.492.193.611.314,1.198.362,1.741h-.001Z"/>
    <path d="M228.22,292.909c-.105.314-.217.615-.338.901-.06.145-.125.285-.189.422l-.004.004c-.78,1.628-1.813,2.626-2.674,2.417-.816-.201-1.271-1.427-1.271-3.092v-.004c0-.193.008-.39.02-.595,0-.06.008-.121.012-.185,0,.064,0,.125-.004.189h.012c-.113,1.934.346,3.418,1.242,3.635.921.225,2.035-.949,2.827-2.798l.012.004c.121-.298.237-.595.354-.897h0Z"/>
    <path d="M228.847,294.007l-1.082,4.809-8.789,14.547-15.082,6.297-16.803-3.562-9.385-10.808,1.327-.728.008-.004c.141.185.281.37.422.551,1.17,1.375,2.497,2.071,3.434,1.644.72-.326,1.07-1.23,1.041-2.421,0-.068,0-.133-.004-.201-.004-.101-.012-.201-.024-.302-.233-.515-.45-1.041-.655-1.58l.294-.161.989-.543,38.535-8.725.692.141.008.004h.012c-.113,1.934.346,3.418,1.242,3.635.921.225,2.035-.949,2.827-2.798l.012.004.016.004.965.197h0Z"/>
    <path d="M316.709,304.333c0-.068,0-.133.004-.201.004-.101.012-.201.024-.302-.008.02-.016.036-.024.056-.008.153-.008.306-.004.446h0ZM276.855,291.872c0,.302.004.603.016.905,0,.064,0,.125.004.189l.008-.004.692-.141,38.535,8.725.989.543.294.161c.326-.873.615-1.777.86-2.702.004-.004.004-.008.004-.008.036-.137.068-.273.105-.41.579-2.3.889-4.732.889-7.258,0-13.968-9.489-25.295-21.198-25.295s-21.198,11.327-21.198,25.295h0ZM293.561,278.25c0-4.527,4.025-8.194,8.99-8.194s8.995,3.667,8.995,8.194-4.029,8.194-8.995,8.194-8.99-3.671-8.99-8.194ZM316.709,304.333c0-.068,0-.133.004-.201.004-.101.012-.201.024-.302-.008.02-.016.036-.024.056-.008.153-.008.306-.004.446h0ZM276.855,291.872c0,.302.004.603.016.905,0,.064,0,.125.004.189l.008-.004.692-.141,38.535,8.725.989.543.294.161c.326-.873.615-1.777.86-2.702.004-.004.004-.008.004-.008.036-.137.068-.273.105-.41.579-2.3.889-4.732.889-7.258,0-13.968-9.489-25.295-21.198-25.295s-21.198,11.327-21.198,25.295h0ZM293.561,278.25c0-4.527,4.025-8.194,8.99-8.194s8.995,3.667,8.995,8.194-4.029,8.194-8.995,8.194-8.99-3.671-8.99-8.194ZM316.709,304.333c0-.068,0-.133.004-.201.004-.101.012-.201.024-.302-.008.02-.016.036-.024.056-.008.153-.008.306-.004.446h0ZM276.855,291.872c0,.302.004.603.016.905,0,.064,0,.125.004.189l.008-.004.692-.141,38.535,8.725.989.543.294.161c.326-.873.615-1.777.86-2.702.004-.004.004-.008.004-.008.036-.137.068-.273.105-.41.579-2.3.889-4.732.889-7.258,0-13.968-9.489-25.295-21.198-25.295s-21.198,11.327-21.198,25.295h0ZM293.561,278.25c0-4.527,4.025-8.194,8.99-8.194s8.995,3.667,8.995,8.194-4.029,8.194-8.995,8.194-8.99-3.671-8.99-8.194ZM316.713,303.886c-.008.153-.008.306-.004.446,0-.068,0-.133.004-.201.004-.101.012-.201.024-.302-.008.02-.016.036-.024.056h0ZM299.022,328.827c23.224.442,42.576-27.181,43.232-61.691.651-34.511-17.647-62.841-40.871-63.279-23.22-.438-42.576,27.181-43.228,61.691s17.643,62.841,40.867,63.279ZM302.552,286.444c-4.966,0-8.99-3.671-8.99-8.194s4.025-8.194,8.99-8.194,8.995,3.667,8.995,8.194-4.029,8.194-8.995,8.194ZM267.551,261.125c1.162-30.325,17.121-54.329,35.644-53.617,18.524.708,32.597,25.87,31.431,56.195-.623,16.308-5.529,30.791-12.814,40.582-.012.02-.028.04-.044.06-.052.072-.109.141-.161.213-.141.185-.281.37-.422.551-6.16,7.913-13.924,12.529-22.203,12.211-.728-.028-1.447-.092-2.159-.197.406.028.816.044,1.23.044,8.066,0,15.078-5.372,18.661-13.281-.008.153-.008.306-.004.446,0-.068,0-.133.004-.201.004-.101.012-.201.024-.302.233-.515.45-1.041.655-1.58.326-.873.615-1.777.86-2.702.004-.004.004-.008.004-.008.036-.137.068-.273.105-.41.579-2.3.889-4.732.889-7.258,0-13.968-9.489-25.295-21.198-25.295s-21.198,11.327-21.198,25.295c0,.302.004.603.016.905,0,.064,0,.125.004.189.008.197.016.394.028.591v.004c.37,6.735,2.951,12.746,6.88,17.02-4.359-4.005-8.062-9.614-10.824-16.345l-.004-.004c-.06-.141-.117-.281-.173-.426-.121-.298-.237-.595-.354-.897-.004-.008-.004-.012-.004-.016-3.49-9.071-5.324-20.032-4.873-31.768h0ZM316.709,304.333c0-.068,0-.133.004-.201.004-.101.012-.201.024-.302-.008.02-.016.036-.024.056-.008.153-.008.306-.004.446h0ZM276.855,291.872c0,.302.004.603.016.905,0,.064,0,.125.004.189l.008-.004.692-.141,38.535,8.725.989.543.294.161c.326-.873.615-1.777.86-2.702.004-.004.004-.008.004-.008.036-.137.068-.273.105-.41.579-2.3.889-4.732.889-7.258,0-13.968-9.489-25.295-21.198-25.295s-21.198,11.327-21.198,25.295h0ZM293.561,278.25c0-4.527,4.025-8.194,8.99-8.194s8.995,3.667,8.995,8.194-4.029,8.194-8.995,8.194-8.99-3.671-8.99-8.194ZM316.709,304.333c0-.068,0-.133.004-.201.004-.101.012-.201.024-.302-.008.02-.016.036-.024.056-.008.153-.008.306-.004.446h0ZM276.855,291.872c0,.302.004.603.016.905,0,.064,0,.125.004.189l.008-.004.692-.141,38.535,8.725.989.543.294.161c.326-.873.615-1.777.86-2.702.004-.004.004-.008.004-.008.036-.137.068-.273.105-.41.579-2.3.889-4.732.889-7.258,0-13.968-9.489-25.295-21.198-25.295s-21.198,11.327-21.198,25.295h0ZM293.561,278.25c0-4.527,4.025-8.194,8.99-8.194s8.995,3.667,8.995,8.194-4.029,8.194-8.995,8.194-8.99-3.671-8.99-8.194ZM316.709,304.333c0-.068,0-.133.004-.201.004-.101.012-.201.024-.302-.008.02-.016.036-.024.056-.008.153-.008.306-.004.446h0ZM276.855,291.872c0,.302.004.603.016.905,0,.064,0,.125.004.189l.008-.004.692-.141,38.535,8.725.989.543.294.161c.326-.873.615-1.777.86-2.702.004-.004.004-.008.004-.008.036-.137.068-.273.105-.41.579-2.3.889-4.732.889-7.258,0-13.968-9.489-25.295-21.198-25.295s-21.198,11.327-21.198,25.295h0ZM293.561,278.25c0-4.527,4.025-8.194,8.99-8.194s8.995,3.667,8.995,8.194-4.029,8.194-8.995,8.194-8.99-3.671-8.99-8.194Z"/>
    <path d="M276.855,291.872c0,.302.004.603.016.905,0,.064,0,.125.004.189.008.197.016.394.028.591v.004c.37,6.735,2.951,12.746,6.88,17.02.008.004.012.012.016.016,3.88,3.558,8.287,5.85,13.023,6.526.406.028.816.044,1.23.044,8.066,0,15.078-5.372,18.661-13.281-.008.153-.008.306-.004.446,0-.068,0-.133.004-.201.004-.101.012-.201.024-.302.233-.515.45-1.041.655-1.58.326-.873.615-1.777.86-2.702.004-.004.004-.008.004-.008.036-.137.068-.273.105-.41.579-2.3.889-4.732.889-7.258,0-13.968-9.489-25.295-21.198-25.295s-21.198,11.327-21.198,25.295h0ZM311.546,278.25c0,4.523-4.029,8.194-8.995,8.194s-8.99-3.671-8.99-8.194,4.025-8.194,8.99-8.194,8.995,3.667,8.995,8.194Z"/>
    <path d="M276.855,291.872c0,.302.004.603.016.905,0,.064,0,.125.004.189.008.197.016.394.028.591v.004c.37,6.735,2.951,12.746,6.88,17.02.008.004.012.012.016.016,3.482,3.776,8.017,6.188,13.023,6.526.406.028.816.044,1.23.044,8.066,0,15.078-5.372,18.661-13.281.008-.02.016-.036.024-.056.233-.515.45-1.041.655-1.58.326-.873.615-1.777.86-2.702.004-.004.004-.008.004-.008.036-.137.068-.273.105-.41.579-2.3.889-4.732.889-7.258,0-13.968-9.489-25.295-21.198-25.295s-21.198,11.327-21.198,25.295h0ZM311.546,278.25c0,4.523-4.029,8.194-8.995,8.194s-8.99-3.671-8.99-8.194,4.025-8.194,8.99-8.194,8.995,3.667,8.995,8.194Z"/>
    <path d="M321.184,305.109c.149-.173.294-.354.43-.547.052-.072.105-.145.153-.217-.052.072-.109.141-.161.213-.141.185-.281.37-.422.551Z"/>
    <path d="M316.737,303.83c.233-.515.45-1.041.655-1.58.326-.873.615-1.777.86-2.702-.201.33-.394.68-.567,1.049-.241.503-.438,1.005-.587,1.492-.193.611-.314,1.198-.362,1.741h.001Z"/>
    <path d="M272.428,292.909c.105.314.217.615.338.901.06.145.125.285.189.422l.004.004c.78,1.628,1.813,2.626,2.674,2.417.816-.201,1.271-1.427,1.271-3.092v-.004c0-.193-.008-.39-.02-.595,0-.06-.008-.121-.012-.185,0,.064,0,.125.004.189h-.012c.113,1.934-.346,3.418-1.242,3.635-.921.225-2.035-.949-2.827-2.798l-.012.004c-.121-.298-.237-.595-.354-.897h-.001Z"/>
    <path d="M271.801,294.007l1.082,4.809,8.789,14.547,15.082,6.297,16.803-3.562,9.385-10.808-1.327-.728-.008-.004c-.141.185-.281.37-.422.551-1.17,1.375-2.497,2.071-3.434,1.644-.72-.326-1.07-1.23-1.041-2.421,0-.068,0-.133.004-.201.004-.101.012-.201.024-.302.233-.515.45-1.041.655-1.58l-.294-.161-.989-.543-38.535-8.725-.692.141-.008.004h-.012c.113,1.934-.346,3.418-1.242,3.635-.921.225-2.035-.949-2.827-2.798l-.012.004-.016.004-.965.197h0Z"/>
    <path d="M336.972,199.19s-14.964-29.215-34.203-27.552c-3.8.356-11.638.119-25.414,15.557,5.344-2.256,30.224-18.853,59.617,11.995Z"/>
  </g>
</svg>