<?xml version="1.0" encoding="UTF-8"?>
<svg id="Calque_1" xmlns="http://www.w3.org/2000/svg" version="1.1" viewBox="0 0 500 500">
  <!-- Generator: Adobe Illustrator 29.5.1, SVG Export Plug-In . SVG Version: 2.1.0 Build 141)  -->
  <g id="HmKXsJ.tif">
    <g>
      <path d="M304.76,313.87c1.44-1.79,2.78-3.68,4.03-5.64-1.24,1.97-2.58,3.85-4.03,5.64ZM302.64,316.35s.06-.07.09-.1c.14-.15.28-.31.41-.46-.14.16-.28.31-.42.47-.03.03-.06.06-.09.1h0ZM311.39,303.7c-.49.93-1,1.84-1.53,2.74.53-.9,1.04-1.81,1.53-2.74ZM313.59,299.17c.26-.57.5-1.15.74-1.73-.24.58-.49,1.16-.74,1.73ZM314.33,297.44c.24-.58.48-1.16.71-1.75-.23.59-.46,1.17-.71,1.75ZM315.71,293.91c.22-.59.43-1.19.63-1.79-.21.6-.42,1.2-.63,1.79ZM316.34,292.11c.2-.6.4-1.2.59-1.81-.19.61-.39,1.21-.59,1.81Z"/>
      <path d="M321.88,251.35c-.31-8.07-2.46-16.25-2.66-24.38-.27-11.31,2.94-24.14,2.1-34.7-.94-11.87-13.63-14.63-22.9-9.25-10.82,6.28-15.03,19.93-14.35,31.84l-13.68-6.11-13.84-3.03c-.76-.57-1.93-16.06-1.95-18.32-.09-10.81,5.5-31.4-2.38-39.32-9.99-10.02-30.15-.22-36.66,10-13.42,21.1-3.68,47.49-2.5,70.44-.33,1.47-8.71,1.95-10.86,2.5-32.02,8.23-28.91,54.89-11.66,76.59,3.14,3.95,15.03,13.39,16.06,15.23,3.16,5.65-.2,9.17,7.6,16.41,18.29,16.99,67.17,18.72,77.8-7.51,1-2.47.88-5.26,1.77-7.1.7-1.45,5.61-5.21,8.07-7.5.04-.04.09-.08.13-.12.04-.04.08-.08.12-.12.08-.08.16-.15.23-.23s.14-.15.21-.21c.03-.03.07-.07.1-.1.03-.03.06-.07.09-.1.14-.15.28-.31.41-.46h0c.28-.31.55-.63.82-.95.27-.32.54-.64.8-.97,1.44-1.79,2.78-3.68,4.03-5.64h0c.37-.59.73-1.18,1.08-1.78.53-.9,1.04-1.81,1.53-2.74.16-.31.32-.62.48-.93.32-.62.63-1.25.93-1.89.27-.57.53-1.14.78-1.71s.5-1.15.74-1.73h0c.24-.58.48-1.17.71-1.75h0c.23-.59.45-1.18.67-1.78h0c.22-.6.43-1.19.63-1.8h0c.2-.6.4-1.21.59-1.81.19-.61.38-1.22.56-1.83.18-.61.36-1.23.52-1.84s.33-1.23.49-1.86c.23-.93.46-1.87.67-2.81.14-.63.27-1.25.4-1.88.83-4.08,1.44-8.2,1.83-12.29.06-.63.11-1.26.17-1.89.4-4.97.48-9.86.31-14.55h0s0,0,0,0ZM294.55,313.53c-2.63,2.81-7.69,6.04-9.87,8.57-1.17,1.36-1.61.71-6.26,6.34,0,2.28,4.19-.05,4.32.14-2.84,12.66-24.41,18.23-35.77,17.69-11-.53-32.59-7.9-33.57-20.95,7.85,3.43,15.87,6.13,24.54,6.05,1.06,0,3.2.77,3.05-.75-20.68-3.7-49.23-19.82-55.26-41.18-4.33-15.35-3.24-37.59,9.32-48.97,8.33-7.54,11.17-5.41,13.5,5.01l4.17,23.37c4.54-12.25,5.95-25.45,5.72-38.47-.34-19.17-12.9-66.36,10.21-76.22,24.3-10.37,15.78,19.2,15.56,32.03-.19,10.98.81,23.88,4.78,34.15,2.58,6.68,7.08,12.34,9.94,18.85,1.62.26.67-1.7.56-2.61-.22-1.76-3.56-21.01-1.91-20.89,10.43,2.13,18.59,5.67,25.57,13.91,3.53,4.16,5.4,9.66,9.51,13.36-2.01-17.06-8.39-32.46,1.22-48.61,6.42-10.8,17.01-10.26,17.69,3.68.2,4.05-1.09,6.91-1.25,10.34-1.56,34.17,10.24,77.45-15.76,105.17h0s0,0,0,0Z"/>
      <path d="M261.53,314.82c4.02-10.45,7.16-21.15,8.91-32.26.34-2.17.04-4.51.35-6.82.13-.98.56-4.75,1.79-4.82,3.08,15.23,1.85,33.52-11.05,43.9h0Z"/>
      <path d="M248.55,287.88c.4-3.35-.16-7.2.37-10.41.19-1.19.6-2.55,1.77-1.23,2.6,11.92,1.88,25.89-6.41,35.38,1.42-7.86,3.33-15.79,4.28-23.74Z"/>
      <path d="M281.59,312.04c4.52-10.56,8.71-21.32,11.1-32.61,1.42,1.05,1.15,2.4,1.22,3.9.42,9.9-4.04,22.86-12.31,28.71h0Z"/>
    </g>
  </g>
</svg>