<?xml version="1.0" encoding="UTF-8"?>
<svg id="Calque_1" xmlns="http://www.w3.org/2000/svg" version="1.1" viewBox="0 0 500 500">
  <!-- Generator: Adobe Illustrator 29.5.1, SVG Export Plug-In . SVG Version: 2.1.0 Build 141)  -->
  <g id="ICONE">
    <path d="M285.22,327.09c30.22-12.28,51.57-41.95,51.57-76.52,0-8.07-1.16-15.96-3.39-23.49l-13.38.18c1.96,5.46,3.21,11.17,3.74,16.95h-15.96l-3.3,12.74h19.26c-.96,10.5-4.34,20.74-9.82,29.76h-17.15l-3.3,12.73h10.54c-3.99,4.05-8.46,7.62-13.3,10.59-1.48,5.43-3.29,11.23-5.52,17.06h0Z"/>
    <path d="M210.75,255.42h5.99c4.34,0,10.45-3.51,18.44-11.21h-20.89c-1.69,5.36-2.95,9.36-3.55,11.21h0Z"/>
    <path d="M209.94,255.42c-.03-.12-.08-.15-.1,0h.1Z"/>
    <path d="M254.24,135.93c-.35,0-.7,0-1.04.01h.01c-7.26-.01-17.48,0-28.07,0,.08,0,.17-.01.24-.01-1.05-.02-2.06,0-3.05.02-5.93,0-11.9.01-17.44.02l.02-.04h-17.87c-2.39-.04-6.57-.09-10.73,0h-44.99l2.05.04h-.36c.19,0,.38,0,.57,0l15.96.35c8.61.34,15.54.83,21.14,1.08,10.88.49,16.83,4.75,20.53,6.94,0,0,.03.01.08.05.06.05.15.11.27.2,0,0,.02.01.03.02.13.1.28.22.46.37,0,0,0,0,.01.01.08.07.19.17.28.25.1.1.21.2.32.32.1.09.23.2.35.35.19.19.39.42.59.65.08.09.16.2.24.3.15.19.3.38.46.59.18.24.35.5.53.77.09.13.18.27.26.41.21.34.42.71.62,1.09.06.11.11.22.17.34.23.46.45.94.66,1.47,1.55,3.86,2.43,9.54.82,17.51-.18.91-.4,1.86-.65,2.85-.05.14-.08.29-.12.44-.09.35-.18.68-.26,1-.08.29-.17.6-.24.9l-6.82,25.46-9.85,36.69h0c-2.05,6.02-3.16,11.4-4.32,16.13-.01.01-.01.03-.01.05-.67,2.43-1.29,4.61-1.84,6.54-.03.09-.06.18-.09.27-.24.7-.5,1.37-.78,2.02-2.24,5.34-5.74,9.6-12.9,12.89-.55.24-1.13.5-1.74.75-1.98-7.81-3.03-15.98-3.03-24.38,0-21.04,6.56-40.6,17.76-56.68h.01s7.42-24.06,7.42-24.06c.64-2.42,1.46-5.43,2.22-8.42-25.99,21.03-42.63,53.18-42.63,89.15,0,9.78,1.23,19.28,3.55,28.36-.27.05-.56.11-.85.15-.4.06-.79.14-1.2.2-.08.02-.15.03-.23.03-12.01,1.78-27.42,2.95-47.15,3.56-.05.02-.06.02-.09,0,0,0,0,.02-.01,0-.01.01-.02.01-.03,0-.01-.01-.02-.01-.03,0-.01.01-.02.01-.03,0-.01-.02,0,.02-.01,0-1.32.03-2.66.08-4.02.11-3.3.08-6.74.14-10.32.18-.73.02-1.46.03-2.21.03-.73.02-1.48.02-2.22.03-.75,0-1.49.02-2.25.02-1.51.02-3.04.03-4.61.03l8.11.03,2.62.02,19.95.08c18.21.11,33.35.2,45.94.27,1.74.02,3.42.03,5.07.05h.56c1.48.02,2.91.02,4.31.03h93.02s.09-.12.24-.35c.08-.11.17-.23.27-.38,1.67-2.37,7.23-10.35,12.74-19.29.62-1.02,1.26-2.05,1.89-3.11l-1.89,8.52-3.23,14.53-5.42,24.5c-.71,2.66-1.41,5.14-2.11,7.42-.27.91-.55,1.81-.82,2.66-.03.11-.06.21-.1.3-6.59-2.79-14.21-8.93-19.46-18.09h-14.32c1.08,2.46,2.25,4.79,3.49,7.01.9,1.6,1.83,3.15,2.8,4.62-5.77-3.11-11.14-7.03-15.85-11.63h-16.98c.58.78,1.19,1.55,1.83,2.31,12.99,15.86,31.79,26.8,53.1,29.57-4.29,8.58-8.4,11.28-12.8,12.39-4.84,1.22-11.03-.97-13.68-1.89-.03-.02-.05-.02-.08-.03l-.23-.11-5.26-2.33-.34-.15c-16.42-7.91-30.34-20.22-40.25-35.38-.38-.4-.75-.81-1.11-1.25-4.82-5.8-13.48-9.92-22.99-12.84,12.71,33.84,40.96,60.14,76,70.15l.35.08c1.75.4,3.5.46,5.28.15,1.54-.26,3.01-.56,4.44-.93,3.36-.82,6.41-1.89,9.16-3.24,3.74-1.81,7-4.11,9.85-6.94,4.52-4.46,8.07-10.23,11.15-17.45,2.37-5.52,4.47-11.9,6.53-19.19.43-1.49.84-3.01,1.26-4.58l2.52-9.45,3.42-12.73,7.97-29.76,3.41-12.74,1.61-5.99,2.08-7.77c1.45-5.28,3.38-8.82,5.33-11.21.62-.78,1.26-1.43,1.89-1.98,2.17-1.93,4.18-2.59,5.3-2.81.56-.11.9-.11.93-.11l3.42-.15.91-.05,18.46-.5,1.86-.05-3.8-6.35-3.32-5.55h-57.27s-4.93.01-4.93.01v-19.99c7.21,1.4,14.76,3.38,21.65,5.87h25.26c-14.89-12.66-33.55-19.55-53.27-19.55-6.47,0-12.77.75-18.81,2.16-1.52,7.3-4.44,18.18-7.77,29.78,5.13-8.67,12.63-15.41,20.21-18.06v19.8h-20.7c-1.23,4.21-2.5,8.51-3.76,12.74h24.45v15.89c.08-.09.17-.2.24-.29l12.51-15.6,7.15-.06c2.75,0,4.73.27,6.09.81,5.63,2.11.38,8.29-4.69,15.34l-8.08,10.07c-.09.1-.17.21-.24.3-.56.67-1.1,1.31-1.63,1.95-4.78,5.68-9.01,10.33-12.9,14.1-10.3,10.04-18.09,14-26.43,14.74-1.04.09-2.07.14-3.13.14h-7.56c-.76,0-1.51,0-2.22-.02-.21.02-.44.02-.65,0-9.78-.05-14.17-.64-14.3-7.05,0-.27.01-.55.01-.84.09-1.98.46-4.29,1.05-6.98.08-.35.15-.71.23-1.08.12-.52.26-1.06.4-1.63.17-.64.34-1.29.52-1.98l2.16-8.05,7.97-29.78,3.41-12.74,1.1-4.09,5.1-19.05,1.16-4.32c.67-2.5,1.29-4.78,1.87-6.86,0,0,.01-.02.01-.03v-.03c.93-3.42,1.76-6.33,2.54-8.81.14-.44.27-.85.41-1.26,10.7-3.94,22.25-6.09,34.3-6.09,54.87,0,99.5,44.63,99.5,99.5,0,47.79-33.86,87.83-78.86,97.34-1.96,3.07-4.09,6.02-6.45,8.82-2.52,3.03-5.31,5.84-8.35,8.4,60.56-3.04,108.89-53.27,108.89-114.56s-51.46-114.72-114.71-114.72h0s0,0,0,0Z"/>
  </g>
</svg>