<?xml version="1.0" encoding="UTF-8"?>
<svg id="Calque_1" xmlns="http://www.w3.org/2000/svg" version="1.1" viewBox="0 0 500 500">
  <!-- Generator: Adobe Illustrator 29.6.1, SVG Export Plug-In . SVG Version: 2.1.1 Build 9)  -->
  <defs>
    <style>
      .st0 {
        fill: #fa6218;
      }

      .st1 {
        display: none;
      }
    </style>
  </defs>
  <g>
    <circle class="st1" cx="250.235" cy="249.75" r="241"/>
    <circle class="st0" cx="250.235" cy="249.75" r="229"/>
    <g>
      <path d="M206.396,437.246l-5.29-1.504,7.296-25.646-15.363-4.371,1.3-4.57,20.653,5.875-8.597,30.217h0Z"/>
      <path d="M171.387,401.787c.574-1.255,1.235-2.42,1.985-3.496.751-1.076,1.666-1.932,2.746-2.566,1.081-.635,2.369-.949,3.866-.941,1.497.007,3.272.48,5.326,1.418,1.521.695,2.708,1.521,3.561,2.476.854.954,1.442,1.997,1.763,3.128.322,1.131.386,2.33.194,3.597s-.587,2.554-1.185,3.861l-.695,1.521-5.002-2.287.678-1.48c.744-1.627,1.046-3.014.908-4.156-.137-1.145-.967-2.063-2.488-2.759-.801-.366-1.516-.548-2.146-.546-.63.002-1.205.167-1.725.494-.52.326-.992.812-1.417,1.457-.423.645-.837,1.406-1.239,2.287l-8.983,19.648-5.002-2.287,8.855-19.367v-.002h0Z"/>
      <path d="M149.86,388.861c.746-.943,1.222-1.876,1.426-2.799.205-.922.188-1.822-.051-2.703-.238-.881-.654-1.715-1.249-2.501-.592-.786-1.326-1.525-2.201-2.217-.943-.745-1.835-1.272-2.676-1.582-.84-.309-1.604-.454-2.292-.437-.687.018-1.299.18-1.838.482-.539.303-.99.684-1.354,1.145-.746.943-1.083,1.809-1.012,2.594s.288,1.47.647,2.055c.621,1.013,1.398,2.123,2.333,3.329.935,1.206,2.072,2.712,3.412,4.519.84,1.113,1.434,2.17,1.781,3.174s.509,1.945.488,2.825c-.023.88-.193,1.698-.512,2.456s-.732,1.459-1.242,2.104c-.982,1.242-2.09,2.113-3.327,2.613s-2.517.713-3.842.639c-1.323-.074-2.641-.396-3.95-.963-1.309-.567-2.516-1.287-3.621-2.16-1.289-1.019-2.371-2.146-3.246-3.379-.875-1.234-1.481-2.526-1.816-3.875-.335-1.351-.37-2.714-.103-4.092.267-1.379.909-2.713,1.927-4l4.315,3.41c-1.14,1.678-1.486,3.228-1.038,4.647s1.42,2.722,2.916,3.903c.507.4,1.065.758,1.676,1.072.612.314,1.232.523,1.859.628.628.104,1.25.062,1.865-.124.616-.188,1.168-.592,1.66-1.213.691-.875.962-1.772.812-2.695-.149-.922-.562-1.855-1.237-2.801-.074-.095-.359-.479-.855-1.152-.496-.672-1.054-1.421-1.673-2.246-.619-.826-1.225-1.633-1.819-2.419-.592-.786-1.014-1.354-1.264-1.7-.605-.891-1.034-1.789-1.288-2.699-.252-.91-.357-1.808-.314-2.689.043-.882.222-1.723.535-2.521.314-.799.726-1.521,1.234-2.165,1.092-1.381,2.306-2.338,3.642-2.87,1.337-.532,2.711-.745,4.123-.639,1.411.105,2.818.479,4.219,1.119,1.401.64,2.711,1.441,3.931,2.405,1.404,1.11,2.591,2.328,3.561,3.655.97,1.328,1.634,2.711,1.99,4.152.357,1.441.371,2.938.041,4.49-.33,1.553-1.083,3.098-2.261,4.635l-4.314-3.41h.002,0Z"/>
      <path d="M116.155,388.184l-17.076-18.847,3.522-3.19,6.705,7.4,19.761-17.901,3.692,4.075-19.759,17.903,6.676,7.368-3.521,3.191h0Z"/>
      <path d="M93.901,362.525l-2.916-4.664,15.521-9.703c.896-.56,1.777-1.17,2.642-1.832.866-.663,1.538-1.43,2.015-2.299s.692-1.867.643-2.996c-.048-1.129-.546-2.451-1.496-3.969-.949-1.518-1.919-2.545-2.913-3.083-.993-.538-1.985-.782-2.976-.733-.989.047-1.972.316-2.948.804-.974.489-1.91,1.013-2.804,1.573l-15.521,9.703-2.915-4.664,17.05-10.659c1.716-1.073,3.372-1.745,4.967-2.016s3.121-.195,4.577.226c1.458.422,2.816,1.171,4.079,2.25,1.264,1.078,2.408,2.438,3.434,4.08s1.747,3.267,2.165,4.873c.417,1.607.496,3.159.236,4.653-.259,1.493-.86,2.899-1.802,4.214-.941,1.316-2.271,2.51-3.987,3.582l-17.05,10.66h0Z"/>
      <path d="M74.915,329.873l-4.625-12.176c-.854-2.248-1.209-4.342-1.068-6.278.144-1.938.682-3.679,1.615-5.227.935-1.546,2.197-2.912,3.786-4.097,1.59-1.186,3.399-2.162,5.428-2.934,2.03-.771,4.032-1.241,6.007-1.41,1.975-.171,3.826.013,5.551.55,1.726.536,3.285,1.481,4.677,2.835,1.394,1.354,2.517,3.155,3.371,5.403l4.625,12.175-29.368,11.158h0ZM98.134,315.168l-1.922-5.06c-.76-2.001-1.65-3.538-2.669-4.61-1.02-1.072-2.14-1.791-3.362-2.159-1.221-.366-2.52-.438-3.894-.215-1.375.224-2.802.616-4.283,1.18-1.48.563-2.809,1.216-3.985,1.962-1.176.744-2.099,1.66-2.77,2.746-.669,1.086-1.03,2.368-1.08,3.846-.051,1.479.305,3.219,1.065,5.221l1.922,5.059,20.977-7.969h0Z"/>
      <path d="M63.473,295.773l-1.235-5.359,30.615-7.052,1.235,5.36-30.614,7.051h0Z"/>
      <path d="M57.89,266.328c-.2-2.338.058-4.472.776-6.403.718-1.931,1.766-3.603,3.147-5.017,1.38-1.414,3.035-2.55,4.963-3.406,1.929-.857,4.004-1.382,6.225-1.572,2.251-.193,4.399-.031,6.445.485,2.047.517,3.87,1.354,5.471,2.512,1.601,1.159,2.913,2.628,3.934,4.41,1.021,1.782,1.632,3.843,1.833,6.18.2,2.339-.052,4.473-.754,6.401-.703,1.931-1.745,3.603-3.125,5.016-1.38,1.414-3.034,2.549-4.963,3.406-1.928.858-4.017,1.383-6.269,1.576-2.22.19-4.354.027-6.401-.489-2.046-.516-3.87-1.354-5.471-2.512-1.6-1.157-2.919-2.628-3.956-4.409-1.036-1.779-1.653-3.838-1.854-6.178h-.001ZM62.361,265.945c.143,1.666.603,3.076,1.378,4.231.777,1.155,1.76,2.065,2.951,2.728,1.19.664,2.517,1.117,3.98,1.359,1.464.243,2.94.3,4.431.172,1.49-.128,2.937-.436,4.336-.924,1.401-.488,2.632-1.16,3.691-2.017,1.061-.856,1.875-1.92,2.442-3.19.569-1.27.781-2.738.639-4.404-.144-1.666-.603-3.076-1.379-4.232-.776-1.154-1.759-2.064-2.95-2.728-1.19-.663-2.517-1.115-3.98-1.358-1.463-.243-2.94-.301-4.431-.172-1.491.127-2.936.436-4.336.924-1.401.488-2.631,1.16-3.692,2.016-1.06.857-1.874,1.921-2.442,3.191s-.781,2.738-.639,4.404h0Z"/>
      <path d="M75.966,230.256l1.878-12.666,4.701.697-1.878,12.666-4.7-.697h0Z"/>
      <path d="M83.429,177.406l-.09.248c-.958-.07-1.778-.137-2.499-.215-5.999-.516-6.096-.505-7.098,2.221l-3.019,8.221,13.093,4.809,2.23-6.072c.986-2.684-.525-2.911-3.674-5.567l.091-.248,10.822,3.976-.091.247c-4.202-.044-5.418-.818-6.404,1.866l-2.23,6.072,11.813,4.338,2.559-3.139.248.092-3.55,9.664-.248-.091.081-4.048-24.766-9.144-2.622,2.927-.248-.09,7.054-19.207,8.549,3.141h0Z"/>
      <path d="M114.719,161.683l.23.127-3.844,6.974-.232-.127.641-4.169-15.111,1.164-2.083,3.774,11.212,6.184,3.004-2.715.231.127-4.971,9.017-.231-.128.693-3.988-23.096-12.786-3.036,2.497-.23-.127,5.565-10.096c3.208-5.817,6.848-7.68,10.624-5.598,3.583,1.976,4.271,5.922,3.763,11.219l16.872-1.349h0ZM93.627,169.045l2.273-4.123c2.209-4.008,1.633-7.791-2.528-10.086-3.391-1.869-6.774-1.475-9.558,3.573l-2.209,4.007,12.021,6.629h0Z"/>
      <path d="M121.948,137.758l7.192,5.589-12.985,16.71-.208-.161,1.094-3.774-20.741-16.117-3.387,1.994-.208-.162,12.58-16.189,7.192,5.587-.162.209c-.892-.358-1.652-.671-2.316-.964-5.559-2.312-5.654-2.332-7.436-.039l-5.399,6.949,10.631,8.26,3.32-4.273c1.755-2.258.385-2.933-1.809-6.42l.163-.209,9.102,7.073-.162.208c-3.99-1.317-4.913-2.425-6.668-.166l-3.32,4.273,10.944,8.504,5.804-7.471c1.782-2.293,1.739-2.381-1.875-7.195-.448-.571-.938-1.23-1.506-2.006l.162-.209h-.002Z"/>
      <path d="M122.317,108.434l4.759-4.445,20.576,22.025-.192.18-30.538-7.42-.161.15,11.956,12.797c4.445,4.758,5.114,4.314,9.55,2.037l.211.225-4.792,4.476-18.834-20.16-2.419-.269-.18-.193,2.476-2.312,27.729,6.67.161-.149-10.573-11.317c-4.447-4.759-5.083-4.345-9.519-2.067l-.21-.226v-.002h0Z"/>
      <path d="M143.037,110.016c-6.48-9.907.197-18.551,1.579-19.492,4.11-2.799,7.652-2.602,9.751-1.316l1.14,5.506-.218.148c-1.78-4.804-6.623-4.646-10.297-2.145-1.964,1.336-6.813,5.863-1.35,14.279,4.733,7.264,12.403,10.399,18.368,6.338,2.256-1.535,3.091-3.436,3.929-5.176l.368.229c-1.338,3.039-3.608,6.82-4.553,7.464-5.856,3.987-13.985,1.429-18.717-5.835Z"/>
      <path d="M181.422,71.784l-2.91,2.815,11.223,24.039,4.027-.422.111.238-9.33,4.355-.111-.24,2.909-2.814-5.453-11.682-11.721,5.473,5.453,11.682,4.027-.424.112.24-9.329,4.354-.112-.238,2.911-2.815-11.224-24.04-4.026.424-.112-.24,9.33-4.355.112.24-2.91,2.814,5.435,11.641,11.721-5.471-5.435-11.642-4.027.423-.112-.238,9.329-4.355.112.239h0Z"/>
      <path d="M206.265,79.977l12.506-2.744,1.018,4.642-12.506,2.745-1.018-4.643Z"/>
      <path d="M261.123,67.552c-.224-.911-.536-1.751-.938-2.52-.402-.768-.922-1.435-1.559-1.999-.641-.565-1.391-1.007-2.251-1.326-.862-.318-1.864-.484-3.008-.498-1.673-.02-3.122.3-4.347.961-1.226.658-2.226,1.549-3.002,2.669s-1.357,2.397-1.741,3.829c-.384,1.433-.584,2.896-.603,4.393-.019,1.496.147,2.966.496,4.406.349,1.442.897,2.732,1.648,3.871.748,1.138,1.728,2.052,2.936,2.741,1.209.69,2.651,1.044,4.323,1.063,1.231.016,2.319-.184,3.264-.598.943-.414,1.757-.99,2.44-1.73.685-.739,1.222-1.605,1.616-2.598.393-.992.655-2.062.786-3.203l5.368.064c-.141,1.877-.564,3.587-1.272,5.133-.708,1.547-1.655,2.878-2.843,3.992-1.186,1.115-2.576,1.971-4.168,2.567-1.59.597-3.34.884-5.246.86-2.347-.028-4.446-.486-6.297-1.374-1.853-.888-3.416-2.087-4.688-3.599s-2.241-3.269-2.905-5.271c-.666-2.004-.984-4.133-.957-6.393.026-2.229.397-4.336,1.11-6.322s1.725-3.721,3.033-5.199c1.309-1.481,2.9-2.65,4.773-3.508s3.984-1.271,6.33-1.243c1.76.021,3.414.284,4.963.786,1.549.503,2.911,1.223,4.089,2.162,1.176.938,2.123,2.072,2.841,3.399.716,1.329,1.153,2.847,1.309,4.549l-5.5-.066v.002h0Z"/>
      <path d="M277.276,58.961l14.696,3.026c3.389.698,5.781,1.954,7.176,3.769,1.393,1.814,1.82,4.029,1.281,6.644-.302,1.464-.768,2.635-1.396,3.508-.629.875-1.293,1.547-1.987,2.017-.696.471-1.351.778-1.964.922-.613.143-1.059.23-1.334.264l-.02.086c.448.152.914.398,1.398.737.484.341.904.808,1.26,1.405.357.598.604,1.33.739,2.195.136.867.079,1.904-.168,3.111-.374,1.809-.576,3.482-.607,5.018-.032,1.537.173,2.68.62,3.43l-5.775-1.189c-.267-.744-.354-1.524-.258-2.344.092-.819.217-1.603.37-2.35.29-1.408.454-2.639.492-3.695.037-1.055-.104-1.968-.425-2.738-.32-.769-.844-1.393-1.568-1.872-.727-.479-1.706-.845-2.941-1.1l-7.93-1.633-2.607,12.67-5.389-1.109,6.337-30.771h0ZM279.779,74.076l8.834,1.82c1.725.354,3.115.214,4.175-.422,1.06-.635,1.758-1.771,2.095-3.408.201-.977.222-1.803.062-2.48-.16-.677-.457-1.24-.889-1.688-.432-.449-.959-.797-1.582-1.045s-1.278-.443-1.969-.586l-8.748-1.801-1.979,9.609h.001Z"/>
      <path d="M312.525,67.473l20.975,8.462-1.779,4.408-15.872-6.405-3.078,7.631,14.688,5.927-1.68,4.161-14.689-5.927-3.44,8.528,16.157,6.52-1.777,4.406-21.259-8.578,11.755-29.133s-.001,0-.001,0Z"/>
      <path d="M349.787,85.148l4.959,3.108-6.433,33.046-4.995-3.132,1.918-8.612-10.625-6.66-6.914,5.481-4.811-3.015,26.9-20.217h.001ZM338.099,100.152l8.128,5.094,3.186-13.946-.113-.069-11.2,8.922h0Z"/>
      <path d="M365.26,95.092l19.348,16.506-3.083,3.615-7.599-6.482-17.306,20.285-4.185-3.569,17.305-20.286-7.564-6.453,3.084-3.615h0Z"/>
      <path d="M389.555,117.162l3.735,4.035-23.056,21.342-3.736-4.036,23.057-21.341Z"/>
      <path d="M398.266,126.223l3.35,4.637-15.542,20.941.052.07,24.867-8.027,3.271,4.529-31.753,9.691-3.581-4.959,19.336-26.883h0Z"/>
      <path d="M418.252,155.521l9.971,20.3-4.266,2.095-7.546-15.362-7.385,3.627,6.983,14.217-4.029,1.979-6.982-14.218-8.254,4.055,7.682,15.64-4.266,2.095-10.106-20.576,28.198-13.851h0Z"/>
      <path d="M418.984,201.986l3.025,12.442-4.618,1.122-3.024-12.441,4.617-1.123Z"/>
      <path d="M438.744,235.984l1.066-3.906.264-.018.674,10.273-.264.018-1.567-3.732-26.474,1.736-1.066,3.906-.263.018-.675-10.273.264-.018,1.568,3.732,26.473-1.736h0Z"/>
      <path d="M440.336,263.699l-.376,6.5-30.088-1.736.016-.264,27.216-15.705.013-.219-17.481-1.01c-6.501-.375-6.678.407-8.316,5.117l-.308-.018.378-6.545,27.541,1.589,1.937-1.474.263.015-.195,3.382-24.668,14.31-.013.22,15.462.893c6.5.375,6.676-.364,8.313-5.072l.308.018h-.002,0Z"/>
      <path d="M419.401,300.262c-6.868-1.551-13.979-7.217-11.324-18.977l1.744-7.725.257.058.613,3.882,25.623,5.785,2.221-3.244.258.059-2.035,9.014c-2.016,8.928-8.129,13.23-17.356,11.148h0ZM408.898,281.245c-2.017,9.333,2.057,14.268,10.77,16.235,8.197,1.85,14.564-.773,16.569-9.658l.407-1.803-27.426-6.19-.32,1.416h0Z"/>
      <path d="M404.658,321.627l-8.467-3.353,7.789-19.675.246.098.006,3.93,24.418,9.668,2.695-2.86.246.097-7.549,19.062-8.467-3.353.098-.246c.956.096,1.773.183,2.492.277,5.982.666,6.08.657,7.149-2.043l3.239-8.18-12.517-4.957-1.991,5.032c-1.053,2.658.451,2.923,3.532,5.657l-.097.244-10.717-4.242.096-.245c4.2.149,5.396.953,6.449-1.706l1.991-5.031-12.884-5.102-3.482,8.795c-1.068,2.699-1.004,2.773,3.812,6.383.59.424,1.245.918,2.008,1.505l-.098.245h.003,0Z"/>
      <path d="M402.071,333.74l-9.457-5.529-3.071,2.639-.227-.134,5.195-8.887.229.133-.793,3.971,22.766,13.36,3.096-2.419.229.133-5.729,9.799c-2.932,5.014-7.326,7.388-11.846,4.745-3.646-2.133-6.453-7.443-2.08-14.924l1.688-2.887ZM416.199,342.001l-13.444-7.86-1.354,2.316c-3.354,5.734-2.553,9.77,1.891,12.367,3.912,2.288,8.201,1.228,11.133-3.785l1.775-3.038h0Z"/>
      <path d="M376.26,364.283l-7.08-5.73,13.316-16.452.205.167-1.17,3.752,20.42,16.529,3.428-1.926.205.166-12.902,15.938-7.08-5.731.166-.205c.885.377,1.639.704,2.297,1.01,5.512,2.424,5.607,2.444,7.436.188l5.537-6.841-10.467-8.472-3.405,4.207c-1.8,2.223-.443,2.924,1.681,6.456l-.166.205-8.961-7.254.166-.206c3.965,1.397,4.865,2.523,6.665.301l3.405-4.207-10.774-8.721-5.952,7.353c-1.828,2.258-1.787,2.347,1.73,7.233.438.579.914,1.249,1.467,2.035l-.166.205h-.001Z"/>
      <path d="M375.336,393.569l-4.844,4.352-20.141-22.416.197-.177,30.381,8.012.164-.147-11.703-13.024c-4.351-4.844-5.027-4.412-9.507-2.223l-.205-.229,4.876-4.381,18.436,20.519,2.412.315.176.197-2.52,2.264-27.589-7.207-.163.146,10.35,11.519c4.35,4.844,4.995,4.442,9.475,2.252l.205.229h0Z"/>
      <path d="M334.704,404.791c-3.78-5.938-4.835-14.969,5.335-21.443l6.68-4.253.143.223-2.301,3.187,14.106,22.158,3.86-.736.142.223-7.794,4.962c-7.721,4.915-15.091,3.661-20.171-4.319v-.002h0ZM340.649,383.898c-8.007,5.201-8.593,11.572-3.796,19.107,4.512,7.089,10.877,9.713,18.561,4.822l1.559-.992-15.098-23.718-1.226.78h0Z"/>
      <path d="M325.709,424.814l-20.596-23.119-.105-.242,6.449-2.824.105.241-2.884,2.849,6.173,6.857,9.836-4.309-.129-1.72c-.486-6.705-.837-7.177-5.619-6.907l-.105-.242,5.966-2.613.105.242,2.063,28.737,1.416,1.589.106.242-2.782,1.219h.001ZM324.764,405.1l-9.352,4.096,10.328,11.521.162-.07-1.139-15.547h.001Z"/>
      <path d="M296.513,434.684l-6.294,1.672-7.738-29.128.256-.067,23.412,20.957.213-.057-4.496-16.924c-1.672-6.293-2.472-6.217-7.456-6.305l-.079-.297,6.336-1.684,7.082,26.661,2.006,1.38.068.255-3.275.87-21.291-18.972-.213.056,3.977,14.969c1.672,6.293,2.429,6.229,7.414,6.315l.079.298h-.001Z"/>
      <path d="M259.816,431.265l.264-.029c3.056,7.769,2.734,8.068,6.32,7.679l3.105-.337-2.947-27.163-3.948-.898-.028-.264,10.234-1.11.029.263-3.663,1.725,2.948,27.164,3.105-.338c3.587-.389,3.209-.613,4.527-8.855l.262-.028.982,9.054-20.208,2.193-.983-9.054v-.002h0Z"/>
      <path d="M240.377,424.826l-12.75-1.18.438-4.732,12.75,1.181-.438,4.731Z"/>
    </g>
  </g>
  <g id="HmKXsJ.tif">
    <g>
      <path d="M289.101,326.299c1.798-1.436,3.513-2.988,5.151-4.64-1.64,1.652-3.355,3.203-5.151,4.64ZM286.49,328.261c.039-.027.077-.051.111-.077.169-.121.338-.24.505-.364-.167.122-.338.243-.507.364-.036.025-.072.05-.109.078h0ZM297.776,317.809c-.679.8-1.374,1.583-2.082,2.345.711-.762,1.406-1.545,2.082-2.345ZM300.9,313.86c.374-.504.74-1.015,1.101-1.53-.362.515-.73,1.025-1.101,1.53ZM302.002,312.327c.364-.514.72-1.033,1.069-1.558-.352.525-.707,1.043-1.069,1.558ZM304.111,309.176c.342-.532.675-1.071,1.005-1.614-.332.542-.666,1.081-1.005,1.614ZM305.116,307.56c.33-.543.655-1.089.972-1.64-.319.55-.645,1.096-.972,1.64Z"/>
      <path d="M319.337,268.967c1.447-7.942,1.112-16.394,2.68-24.379,2.181-11.101,8.092-22.933,9.56-33.42,1.649-11.797-10.138-17.234-20.36-13.986-11.917,3.788-18.989,16.211-20.901,27.98l-12.037-8.921-12.854-5.956c-.618-.716,1.588-16.101,2.057-18.309,2.245-10.57,12.165-29.471,6.178-38.906-7.582-11.944-29.393-6.734-37.954,1.837-17.671,17.696-13.868,45.572-17.677,68.227-.636,1.36-8.925.015-11.138.089-33.046,1.104-40.096,47.338-27.949,72.259,2.211,4.539,11.776,16.323,12.385,18.343,1.867,6.196-2.176,8.909,3.867,17.666,14.178,20.544,61.532,32.81,77.581,9.493,1.515-2.199,1.993-4.948,3.262-6.553.996-1.267,6.608-3.875,9.507-5.579.052-.031.104-.059.154-.091.049-.029.099-.058.146-.088.096-.059.19-.116.278-.172s.171-.111.252-.164c.038-.025.08-.051.116-.076.039-.027.077-.051.111-.077.169-.121.338-.24.505-.364v-.002c.337-.243.672-.494,1.003-.746.334-.254.664-.511.99-.774,1.798-1.436,3.513-2.988,5.151-4.64h0c.489-.494.968-.993,1.442-1.504.711-.762,1.406-1.545,2.082-2.345.226-.267.451-.536.673-.806.445-.54.884-1.089,1.316-1.645.384-.494.761-.995,1.135-1.499s.74-1.015,1.101-1.53h0c.365-.516.72-1.035,1.07-1.56h0c.353-.527.698-1.056,1.038-1.591h0c.342-.534.676-1.074,1.006-1.616h0c.33-.545.656-1.091.973-1.642.32-.553.633-1.109.942-1.667.309-.558.612-1.12.91-1.685s.59-1.133.878-1.706c.431-.859.851-1.725,1.258-2.595.273-.58.538-1.161.8-1.746,1.697-3.801,3.176-7.698,4.443-11.608.195-.602.384-1.203.569-1.805,1.461-4.763,2.606-9.526,3.448-14.142h.003ZM279.205,323.76c-3.18,2.173-8.811,4.235-11.487,6.23-1.436,1.07-1.725.34-7.483,4.834-.497,2.223,4.099.858,4.19,1.069-5.512,11.75-27.775,12.523-38.746,9.532-10.621-2.894-30.113-14.763-28.242-27.716,6.921,5.05,14.165,9.414,22.65,11.219,1.034.22,2.955,1.447,3.138-.074-19.393-8.09-43.781-30.003-45.039-52.161-.905-15.925,4.967-37.399,19.697-45.796,9.761-5.563,12.072-2.871,12.1,7.81l-.989,23.722c7.081-10.974,11.313-23.556,13.904-36.324,3.815-18.788,1.76-67.581,26.46-72.21,25.965-4.869,11.254,22.163,8.258,34.639-2.563,10.675-4.373,23.489-2.722,34.375,1.073,7.079,4.246,13.577,5.624,20.552,1.521.604,1.018-1.512,1.107-2.43.167-1.764,1.071-21.281,2.649-20.805,9.727,4.337,16.923,9.562,21.952,19.114,2.542,4.829,3.187,10.601,6.393,15.101,1.728-17.094-1.173-33.504,11.708-47.195,8.607-9.15,18.825-6.335,16.474,7.422-.682,3.997-2.56,6.513-3.453,9.822-8.914,33.023-6.758,77.829-38.14,99.271h-.003Z"/>
      <path d="M246.687,317.871c6.184-9.329,11.569-19.101,15.681-29.568.802-2.041,1.012-4.397,1.817-6.584.342-.926,1.575-4.519,2.788-4.315-.286,15.531-5.447,33.125-20.286,40.467h0Z"/>
      <path d="M239.842,288.762c1.115-3.186,1.405-7.067,2.611-10.089.447-1.123,1.137-2.365,1.995-.814-.038,12.205-3.76,25.68-13.916,33.155,3.085-7.367,6.669-14.699,9.31-22.252Z"/>
      <path d="M266.881,319.498c6.702-9.333,13.118-18.93,17.889-29.436,1.159,1.328.606,2.593.344,4.067-1.732,9.754-8.894,21.443-18.233,25.369h0Z"/>
    </g>
  </g>
</svg>